<?xml version="1.0" encoding="utf-8"?>
<!-- Generator: Adobe Illustrator 26.0.0, SVG Export Plug-In . SVG Version: 6.00 Build 0)  -->
<svg version="1.1" xmlns="http://www.w3.org/2000/svg" xmlns:xlink="http://www.w3.org/1999/xlink" x="0px" y="0px"
	 viewBox="0 0 750 500" style="enable-background:new 0 0 750 500;" xml:space="preserve">
<style type="text/css">
	.st0{fill:#001F4E;}
	.st1{clip-path:url(#SVGID_00000149362273524551987780000012898797456420266628_);}
	.st2{fill:#00CA9B;}
	.st3{fill:#F5FAFD;}
	.st4{fill:#02B085;}
	.st5{fill:#F2F3F4;}
	.st6{fill:none;stroke:#0670B6;stroke-width:0.25;stroke-miterlimit:10;}
	.st7{fill:#C1AA02;}
	.st8{fill:#E8D200;}
	.st9{fill:none;stroke:#C1AA02;stroke-miterlimit:10;}
	.st10{fill:#FD6801;}
	.st11{fill:#CE560A;}
	.st12{fill:#0670B6;}
	.st13{fill:#0064A3;}
	.st14{fill:#E22515;}
	.st15{fill:#BE0A05;}
</style>
<g id="BACKGROUND">
	<rect class="st0" width="750" height="500"/>
</g>
<g id="OBJECTS">
	<g>
		<defs>
			<rect id="SVGID_1_" width="750" height="500"/>
		</defs>
		<clipPath id="SVGID_00000134960971202841086830000017954847743380712836_">
			<use xlink:href="#SVGID_1_"  style="overflow:visible;"/>
		</clipPath>
		<g style="clip-path:url(#SVGID_00000134960971202841086830000017954847743380712836_);">
			<g>
				
					<rect x="676.14" y="225.69" transform="matrix(0.2499 -0.9683 0.9683 0.2499 253.2049 919.5191)" class="st2" width="87.84" height="141.3"/>
				<polygon class="st3" points="802.54,269.64 778.64,355.5 643.47,320.62 664.88,237.63 669.08,235.2 				"/>
				<polygon class="st2" points="805.3,268.6 784.07,350.85 778.29,356.28 641.47,320.98 647.12,316.09 668.48,233.3 				"/>
				<polygon class="st4" points="646.47,316.65 641.47,320.98 778.29,356.28 782.97,351.88 				"/>
			</g>
			<polygon class="st4" points="783.34,351.54 784.07,350.85 805.3,268.6 668.48,233.3 			"/>
		</g>
		<g style="clip-path:url(#SVGID_00000134960971202841086830000017954847743380712836_);">
			<g>
				
					<rect x="-21.35" y="165.49" transform="matrix(0.431 0.9024 -0.9024 0.431 240.9134 110.0968)" class="st3" width="109.02" height="161.16"/>
				<circle class="st0" cx="79.66" cy="167.87" r="1.8"/>
				<path class="st0" d="M75.18,172.01c-0.9,0.43-1.98,0.05-2.41-0.85c-0.43-0.9-0.05-1.98,0.85-2.41c0.9-0.43,1.98-0.05,2.41,0.85
					C76.46,170.5,76.08,171.58,75.18,172.01z"/>
				<path class="st0" d="M69.92,174.52c-0.9,0.43-1.98,0.05-2.41-0.85c-0.43-0.9-0.05-1.98,0.85-2.41s1.98-0.05,2.41,0.85
					C71.2,173.02,70.82,174.09,69.92,174.52z"/>
				<circle class="st0" cx="63.88" cy="175.41" r="1.8"/>
				<circle class="st0" cx="58.62" cy="177.92" r="1.8"/>
				<path class="st0" d="M54.14,182.06c-0.9,0.43-1.98,0.05-2.41-0.85c-0.43-0.9-0.05-1.98,0.85-2.41c0.9-0.43,1.98-0.05,2.41,0.85
					C55.42,180.55,55.04,181.63,54.14,182.06z"/>
				<circle class="st0" cx="48.11" cy="182.94" r="1.8"/>
				<circle class="st0" cx="42.85" cy="185.45" r="1.8"/>
				<circle class="st0" cx="37.59" cy="187.97" r="1.8"/>
				<circle class="st0" cx="32.33" cy="190.48" r="1.8"/>
				<circle class="st0" cx="27.07" cy="192.99" r="1.8"/>
				<circle class="st0" cx="21.81" cy="195.5" r="1.8"/>
				<path class="st0" d="M17.33,199.64c-0.9,0.43-1.98,0.05-2.41-0.85c-0.43-0.9-0.05-1.98,0.85-2.41c0.9-0.43,1.98-0.05,2.41,0.85
					C18.61,198.14,18.23,199.21,17.33,199.64z"/>
				<circle class="st0" cx="11.29" cy="200.53" r="1.8"/>
				<path class="st0" d="M6.81,204.67c-0.9,0.43-1.98,0.05-2.41-0.85c-0.43-0.9-0.05-1.98,0.85-2.41c0.9-0.43,1.98-0.05,2.41,0.85
					C8.09,203.16,7.71,204.24,6.81,204.67z"/>
				<circle class="st0" cx="0.78" cy="205.55" r="1.8"/>
				<circle class="st0" cx="-4.48" cy="208.06" r="1.8"/>
				<path class="st0" d="M-8.96,212.2c-0.9,0.43-1.98,0.05-2.41-0.85c-0.43-0.9-0.05-1.98,0.85-2.41c0.9-0.43,1.98-0.05,2.41,0.85
					C-7.69,210.7-8.07,211.77-8.96,212.2z"/>
				
					<ellipse transform="matrix(0.3533 -0.9355 0.9355 0.3533 -209.0424 123.7618)" class="st0" cx="-15" cy="213.09" rx="1.8" ry="1.8"/>
				<circle class="st0" cx="-20.26" cy="215.6" r="1.8"/>
				<path class="st0" d="M-24.74,219.74c-0.9,0.43-1.98,0.05-2.41-0.85c-0.43-0.9-0.05-1.98,0.85-2.41c0.9-0.43,1.98-0.05,2.41,0.85
					C-23.46,218.23-23.84,219.31-24.74,219.74z"/>
				<circle class="st0" cx="-30.78" cy="220.62" r="1.8"/>
				<path class="st0" d="M-35.26,224.76c-0.9,0.43-1.98,0.05-2.41-0.85c-0.43-0.9-0.05-1.98,0.85-2.41c0.9-0.43,1.98-0.05,2.41,0.85
					C-33.98,223.26-34.36,224.33-35.26,224.76z"/>
				<path class="st0" d="M-40.52,227.27c-0.9,0.43-1.98,0.05-2.41-0.85c-0.43-0.9-0.05-1.98,0.85-2.41c0.9-0.43,1.98-0.05,2.41,0.85
					S-39.62,226.84-40.52,227.27z"/>
				<circle class="st0" cx="-46.56" cy="228.16" r="1.8"/>
				<circle class="st0" cx="-51.81" cy="230.67" r="1.8"/>
				<path class="st0" d="M-56.3,234.81c-0.9,0.43-1.98,0.05-2.41-0.85c-0.43-0.9-0.05-1.98,0.85-2.41s1.98-0.05,2.41,0.85
					S-55.4,234.38-56.3,234.81z"/>
				<polygon class="st5" points="-16.06,329.99 -63.05,231.62 129.36,260.53 				"/>
			</g>
			<line class="st6" x1="80.43" y1="180.42" x2="116.31" y2="255.55"/>
			<line class="st6" x1="73.42" y1="183.77" x2="109.3" y2="258.9"/>
			<line class="st6" x1="66.4" y1="187.12" x2="102.29" y2="262.25"/>
			<line class="st6" x1="59.39" y1="190.47" x2="95.28" y2="265.6"/>
			<line class="st6" x1="52.38" y1="193.82" x2="88.26" y2="268.95"/>
			<line class="st6" x1="45.37" y1="197.17" x2="81.25" y2="272.3"/>
			<line class="st6" x1="38.36" y1="200.52" x2="74.24" y2="275.65"/>
			<line class="st6" x1="31.34" y1="203.87" x2="67.23" y2="279"/>
			<line class="st6" x1="24.33" y1="207.22" x2="60.22" y2="282.35"/>
			<line class="st6" x1="17.32" y1="210.57" x2="53.2" y2="285.7"/>
			<line class="st6" x1="10.31" y1="213.92" x2="46.19" y2="289.04"/>
			<line class="st6" x1="3.3" y1="217.26" x2="39.18" y2="292.39"/>
			<line class="st6" x1="-3.72" y1="220.61" x2="32.17" y2="295.74"/>
			<line class="st6" x1="-10.73" y1="223.96" x2="25.16" y2="299.09"/>
			<line class="st6" x1="-17.74" y1="227.31" x2="18.14" y2="302.44"/>
			<line class="st6" x1="-24.75" y1="230.66" x2="11.13" y2="305.79"/>
			<line class="st6" x1="-31.76" y1="234.01" x2="4.12" y2="309.14"/>
			<line class="st6" x1="-38.78" y1="237.36" x2="-2.89" y2="312.49"/>
			<line class="st6" x1="-45.79" y1="240.71" x2="-9.9" y2="315.84"/>
		</g>
		<g style="clip-path:url(#SVGID_00000134960971202841086830000017954847743380712836_);">
			
				<rect x="-49.54" y="88.67" transform="matrix(0.5237 0.8519 -0.8519 0.5237 93.97 32.5428)" class="st7" width="134.84" height="23.29"/>
			
				<rect x="22.69" y="28.23" transform="matrix(0.8519 -0.5237 0.5237 0.8519 -46.3289 27.4986)" class="st8" width="5.52" height="134.84"/>
			<line class="st9" x1="-2.35" y1="46.92" x2="-4.96" y2="48.52"/>
			<line class="st9" x1="-4.12" y1="44.05" x2="-6.73" y2="45.65"/>
			<line class="st9" x1="-5.89" y1="41.17" x2="-8.5" y2="42.78"/>
			<line class="st9" x1="-0.43" y1="50.05" x2="-3.04" y2="51.66"/>
			<line class="st9" x1="1.5" y1="53.18" x2="-1.11" y2="54.79"/>
			<line class="st9" x1="3.42" y1="56.32" x2="0.81" y2="57.92"/>
			<line class="st9" x1="5.35" y1="59.45" x2="2.74" y2="61.05"/>
			<line class="st9" x1="7.28" y1="62.58" x2="4.67" y2="64.19"/>
			<line class="st9" x1="9.2" y1="65.72" x2="6.59" y2="67.32"/>
			<line class="st9" x1="11.13" y1="68.85" x2="8.52" y2="70.45"/>
			<line class="st9" x1="13.05" y1="71.98" x2="10.44" y2="73.59"/>
			<line class="st9" x1="14.98" y1="75.11" x2="12.37" y2="76.72"/>
			<line class="st9" x1="16.91" y1="78.25" x2="14.3" y2="79.85"/>
			<line class="st9" x1="18.83" y1="81.38" x2="16.22" y2="82.98"/>
			<line class="st9" x1="20.76" y1="84.51" x2="18.15" y2="86.12"/>
			<line class="st9" x1="22.68" y1="87.65" x2="20.07" y2="89.25"/>
			<line class="st9" x1="24.61" y1="90.78" x2="22" y2="92.38"/>
			<line class="st9" x1="26.54" y1="93.91" x2="23.93" y2="95.52"/>
			<line class="st9" x1="28.46" y1="97.04" x2="25.85" y2="98.65"/>
			<line class="st9" x1="30.39" y1="100.18" x2="27.78" y2="101.78"/>
			<line class="st9" x1="32.32" y1="103.31" x2="29.7" y2="104.91"/>
			<line class="st9" x1="34.24" y1="106.44" x2="31.63" y2="108.05"/>
			<line class="st9" x1="36.17" y1="109.58" x2="33.56" y2="111.18"/>
			<line class="st9" x1="38.09" y1="112.71" x2="35.48" y2="114.31"/>
			<line class="st9" x1="40.02" y1="115.84" x2="37.41" y2="117.45"/>
			<line class="st9" x1="41.95" y1="118.97" x2="39.33" y2="120.58"/>
			<line class="st9" x1="43.87" y1="122.11" x2="41.26" y2="123.71"/>
			<line class="st9" x1="45.8" y1="125.24" x2="43.19" y2="126.84"/>
			<line class="st9" x1="47.72" y1="128.37" x2="45.11" y2="129.98"/>
			<line class="st9" x1="49.65" y1="131.51" x2="47.04" y2="133.11"/>
			<line class="st9" x1="51.58" y1="134.64" x2="48.97" y2="136.24"/>
			<line class="st9" x1="53.5" y1="137.77" x2="50.89" y2="139.38"/>
			<line class="st9" x1="55.43" y1="140.9" x2="52.82" y2="142.51"/>
			<line class="st9" x1="57.35" y1="144.04" x2="54.74" y2="145.64"/>
			<line class="st9" x1="59.28" y1="147.17" x2="56.67" y2="148.77"/>
		</g>
		<g style="clip-path:url(#SVGID_00000134960971202841086830000017954847743380712836_);">
			<g>
				
					<rect x="173.18" y="-55.68" transform="matrix(-0.9942 -0.1078 0.1078 -0.9942 448.8483 70.0138)" class="st3" width="106.28" height="157.11"/>
				
					<ellipse transform="matrix(0.4948 -0.869 0.869 0.4948 46.8396 283.6086)" class="st0" cx="267.33" cy="101.52" rx="1.76" ry="1.76"/>
				<path class="st0" d="M266.2,95.68c0.1-0.97,0.97-1.66,1.94-1.56c0.97,0.1,1.66,0.97,1.56,1.94c-0.1,0.97-0.97,1.66-1.94,1.56
					C266.79,97.52,266.09,96.65,266.2,95.68z"/>
				<path class="st0" d="M266.81,90.03c0.1-0.97,0.97-1.66,1.94-1.56c0.97,0.1,1.66,0.97,1.56,1.94s-0.97,1.66-1.94,1.56
					C267.4,91.87,266.7,91,266.81,90.03z"/>
				<path class="st0" d="M267.42,84.39c0.1-0.97,0.97-1.66,1.94-1.56c0.97,0.1,1.66,0.97,1.56,1.94c-0.1,0.97-0.97,1.66-1.94,1.56
					C268.01,86.22,267.32,85.35,267.42,84.39z"/>
				<path class="st0" d="M268.03,78.74c0.1-0.97,0.97-1.66,1.94-1.56c0.97,0.1,1.66,0.97,1.56,1.94c-0.1,0.97-0.97,1.66-1.94,1.56
					C268.63,80.57,267.93,79.7,268.03,78.74z"/>
				<path class="st0" d="M268.65,73.09c0.1-0.97,0.97-1.66,1.94-1.56c0.97,0.1,1.66,0.97,1.56,1.94c-0.1,0.97-0.97,1.66-1.94,1.56
					S268.54,74.05,268.65,73.09z"/>
				<path class="st0" d="M269.26,67.44c0.1-0.97,0.97-1.66,1.94-1.56s1.66,0.97,1.56,1.94s-0.97,1.66-1.94,1.56
					C269.85,69.27,269.15,68.41,269.26,67.44z"/>
				<path class="st0" d="M269.87,61.79c0.1-0.97,0.97-1.66,1.94-1.56c0.97,0.1,1.66,0.97,1.56,1.94c-0.1,0.97-0.97,1.66-1.94,1.56
					C270.46,63.62,269.77,62.76,269.87,61.79z"/>
				<path class="st0" d="M270.48,56.14c0.1-0.97,0.97-1.66,1.94-1.56c0.97,0.1,1.66,0.97,1.56,1.94c-0.1,0.97-0.97,1.66-1.94,1.56
					C271.08,57.98,270.38,57.11,270.48,56.14z"/>
				<path class="st0" d="M271.1,50.49c0.1-0.97,0.97-1.66,1.94-1.56c0.97,0.1,1.66,0.97,1.56,1.94c-0.1,0.97-0.97,1.66-1.94,1.56
					C271.69,52.33,270.99,51.46,271.1,50.49z"/>
				<path class="st0" d="M271.71,44.85c0.1-0.97,0.97-1.66,1.94-1.56c0.97,0.1,1.66,0.97,1.56,1.94s-0.97,1.66-1.94,1.56
					C272.3,46.68,271.6,45.81,271.71,44.85z"/>
				<path class="st0" d="M272.32,39.2c0.1-0.97,0.97-1.66,1.94-1.56c0.97,0.1,1.66,0.97,1.56,1.94c-0.1,0.97-0.97,1.66-1.94,1.56
					C272.92,41.03,272.22,40.16,272.32,39.2z"/>
				<path class="st0" d="M272.93,33.55c0.1-0.97,0.97-1.66,1.94-1.56c0.97,0.1,1.66,0.97,1.56,1.94c-0.1,0.97-0.97,1.66-1.94,1.56
					C273.53,35.38,272.83,34.51,272.93,33.55z"/>
				<path class="st0" d="M273.55,27.9c0.1-0.97,0.97-1.66,1.94-1.56c0.97,0.1,1.66,0.97,1.56,1.94c-0.1,0.97-0.97,1.66-1.94,1.56
					C274.14,29.73,273.44,28.86,273.55,27.9z"/>
				<path class="st0" d="M274.16,22.25c0.1-0.97,0.97-1.66,1.94-1.56c0.97,0.1,1.66,0.97,1.56,1.94c-0.1,0.97-0.97,1.66-1.94,1.56
					C274.75,24.08,274.05,23.22,274.16,22.25z"/>
				<path class="st0" d="M274.77,16.6c0.1-0.97,0.97-1.66,1.94-1.56s1.66,0.97,1.56,1.94c-0.1,0.97-0.97,1.66-1.94,1.56
					C275.37,18.44,274.67,17.57,274.77,16.6z"/>
				<path class="st0" d="M275.39,10.95c0.1-0.97,0.97-1.66,1.94-1.56c0.97,0.1,1.66,0.97,1.56,1.94c-0.1,0.97-0.97,1.66-1.94,1.56
					C275.98,12.79,275.28,11.92,275.39,10.95z"/>
				<path class="st0" d="M276,5.3c0.1-0.97,0.97-1.66,1.94-1.56c0.97,0.1,1.66,0.97,1.56,1.94c-0.1,0.97-0.97,1.66-1.94,1.56
					C276.59,7.14,275.89,6.27,276,5.3z"/>
				<path class="st0" d="M276.61-0.34c0.1-0.97,0.97-1.66,1.94-1.56c0.97,0.1,1.66,0.97,1.56,1.94s-0.97,1.66-1.94,1.56
					C277.2,1.49,276.51,0.62,276.61-0.34z"/>
				<path class="st0" d="M277.22-5.99c0.1-0.97,0.97-1.66,1.94-1.56s1.66,0.97,1.56,1.94c-0.1,0.97-0.97,1.66-1.94,1.56
					C277.82-4.16,277.12-5.03,277.22-5.99z"/>
				<path class="st0" d="M277.84-11.64c0.1-0.97,0.97-1.66,1.94-1.56c0.97,0.1,1.66,0.97,1.56,1.94s-0.97,1.66-1.94,1.56
					C278.43-9.81,277.73-10.68,277.84-11.64z"/>
				<path class="st0" d="M278.45-17.29c0.1-0.97,0.97-1.66,1.94-1.56c0.97,0.1,1.66,0.97,1.56,1.94s-0.97,1.66-1.94,1.56
					C279.04-15.46,278.34-16.32,278.45-17.29z"/>
				<path class="st0" d="M279.06-22.94c0.1-0.97,0.97-1.66,1.94-1.56c0.97,0.1,1.66,0.97,1.56,1.94c-0.1,0.97-0.97,1.66-1.94,1.56
					C279.65-21.1,278.96-21.97,279.06-22.94z"/>
				<path class="st0" d="M279.67-28.59c0.1-0.97,0.97-1.66,1.94-1.56c0.97,0.1,1.66,0.97,1.56,1.94c-0.1,0.97-0.97,1.66-1.94,1.56
					C280.27-26.75,279.57-27.62,279.67-28.59z"/>
				<path class="st0" d="M280.29-34.24c0.1-0.97,0.97-1.66,1.94-1.56c0.97,0.1,1.66,0.97,1.56,1.94c-0.1,0.97-0.97,1.66-1.94,1.56
					C280.88-32.4,280.18-33.27,280.29-34.24z"/>
				<path class="st0" d="M280.9-39.88c0.1-0.97,0.97-1.66,1.94-1.56c0.97,0.1,1.66,0.97,1.56,1.94c-0.1,0.97-0.97,1.66-1.94,1.56
					C281.49-38.05,280.79-38.92,280.9-39.88z"/>
				<path class="st0" d="M281.51-45.53c0.1-0.97,0.97-1.66,1.94-1.56c0.97,0.1,1.66,0.97,1.56,1.94c-0.1,0.97-0.97,1.66-1.94,1.56
					C282.1-43.7,281.41-44.57,281.51-45.53z"/>
				<polygon class="st5" points="181.96,-60.96 287.62,-49.5 165.02,95.24 				"/>
			</g>
			<line class="st6" x1="256.53" y1="95.72" x2="175.84" y2="86.97"/>
			<line class="st6" x1="257.35" y1="88.19" x2="176.65" y2="79.44"/>
			<line class="st6" x1="258.16" y1="80.66" x2="177.47" y2="71.91"/>
			<line class="st6" x1="258.98" y1="73.13" x2="178.29" y2="64.38"/>
			<line class="st6" x1="259.8" y1="65.6" x2="179.1" y2="56.85"/>
			<line class="st6" x1="260.61" y1="58.07" x2="179.92" y2="49.31"/>
			<line class="st6" x1="261.43" y1="50.53" x2="180.74" y2="41.78"/>
			<line class="st6" x1="262.25" y1="43" x2="181.55" y2="34.25"/>
			<line class="st6" x1="263.06" y1="35.47" x2="182.37" y2="26.72"/>
			<line class="st6" x1="263.88" y1="27.94" x2="183.19" y2="19.19"/>
			<line class="st6" x1="264.7" y1="20.41" x2="184" y2="11.66"/>
			<line class="st6" x1="265.52" y1="12.88" x2="184.82" y2="4.12"/>
			<line class="st6" x1="266.33" y1="5.35" x2="185.64" y2="-3.41"/>
			<line class="st6" x1="267.15" y1="-2.19" x2="186.45" y2="-10.94"/>
			<line class="st6" x1="267.97" y1="-9.72" x2="187.27" y2="-18.47"/>
			<line class="st6" x1="268.78" y1="-17.25" x2="188.09" y2="-26"/>
			<line class="st6" x1="269.6" y1="-24.78" x2="188.9" y2="-33.53"/>
			<line class="st6" x1="270.42" y1="-32.31" x2="189.72" y2="-41.06"/>
			<line class="st6" x1="271.23" y1="-39.84" x2="190.54" y2="-48.6"/>
		</g>
		<g style="clip-path:url(#SVGID_00000134960971202841086830000017954847743380712836_);">
			
				<rect x="655.19" y="403.71" transform="matrix(0.814 -0.5809 0.5809 0.814 -149.9972 473.2755)" class="st10" width="17.68" height="134.3"/>
			
				<rect x="656.28" y="407.11" transform="matrix(0.814 -0.5808 0.5808 0.814 -152.8539 471.1423)" class="st11" width="5.99" height="134.3"/>
			<path class="st10" d="M614.18,398.76c0.57,0.8,0.57,1.79,0,2.2c-0.57,0.41-1.5,0.09-2.08-0.72c-0.57-0.8-0.57-1.79,0-2.2
				C612.67,397.64,613.6,397.96,614.18,398.76z"/>
			<path class="st3" d="M632.25,411.07l-17.67-12.11c-0.18-0.14-0.38-0.22-0.57-0.27c0.19,0.48,0.11,1.05-0.43,1.44
				c-0.54,0.38-1.1,0.27-1.49-0.05c-0.02,0.19,0,0.4,0.07,0.61l5.64,20.6c0,0,0.49,0.69,0.53,0.74l0.03,0.04
				c0.72,1.01,2.14,1.25,3.15,0.53l0.04-0.03c0.85-0.6,1.14-1.69,0.79-2.63c0.77,0.63,1.9,0.71,2.74,0.1l0.04-0.03
				c0.85-0.6,1.14-1.69,0.79-2.63c0.77,0.63,1.9,0.71,2.74,0.1l0.04-0.03c0.85-0.6,1.14-1.69,0.79-2.63c0.77,0.63,1.9,0.71,2.74,0.1
				l0.04-0.03c1.01-0.72,1.25-2.14,0.53-3.15l-0.03-0.04C632.72,411.69,632.25,411.07,632.25,411.07z"/>
		</g>
		<g style="clip-path:url(#SVGID_00000134960971202841086830000017954847743380712836_);">
			
				<rect x="139.34" y="409.96" transform="matrix(0.9731 0.2306 -0.2306 0.9731 113.9911 -21.3083)" class="st12" width="17.68" height="134.3"/>
			
				<rect x="75.34" y="472.77" transform="matrix(0.2306 -0.9731 0.9731 0.2306 -353.3118 504.7213)" class="st13" width="134.3" height="5.99"/>
			<path class="st12" d="M169.65,392.13c-0.23,0.96-0.97,1.61-1.65,1.45c-0.69-0.16-1.06-1.07-0.83-2.04s0.97-1.61,1.65-1.45
				C169.5,390.26,169.87,391.17,169.65,392.13z"/>
			<path class="st3" d="M172.28,413.83l-2.51-21.27c-0.02-0.23-0.08-0.43-0.17-0.6c-0.24,0.46-0.72,0.78-1.37,0.62
				c-0.64-0.15-0.93-0.65-0.94-1.16c-0.16,0.12-0.3,0.26-0.41,0.45l-11.8,17.8c0,0-0.2,0.83-0.21,0.88l-0.01,0.04
				c-0.29,1.21,0.47,2.43,1.68,2.72l0.04,0.01c1.01,0.24,2.03-0.26,2.5-1.13c0.03,0.99,0.72,1.89,1.73,2.13l0.04,0.01
				c1.01,0.24,2.03-0.26,2.5-1.13c0.03,0.99,0.72,1.89,1.73,2.13l0.04,0.01c1.01,0.24,2.03-0.26,2.5-1.13
				c0.03,0.99,0.72,1.89,1.73,2.13l0.04,0.01c1.21,0.29,2.43-0.47,2.72-1.68l0.01-0.04C172.12,414.6,172.28,413.83,172.28,413.83z"
				/>
		</g>
		<g style="clip-path:url(#SVGID_00000134960971202841086830000017954847743380712836_);">
			
				<rect x="155.18" y="419.12" transform="matrix(0.8531 0.5217 -0.5217 0.8531 277.7949 -14.1437)" class="st8" width="17.68" height="134.3"/>
			
				<rect x="91.88" y="480.23" transform="matrix(0.5217 -0.8531 0.8531 0.5217 -336.1789 366.7749)" class="st7" width="134.3" height="5.99"/>
			<path class="st8" d="M210.85,412.18c-0.52,0.84-1.42,1.23-2.02,0.86c-0.6-0.37-0.67-1.35-0.16-2.19
				c0.52-0.84,1.42-1.23,2.02-0.86C211.3,410.35,211.37,411.33,210.85,412.18z"/>
			<path class="st3" d="M206.6,433.62l4.23-21c0.05-0.22,0.05-0.43,0.02-0.63c-0.37,0.36-0.92,0.51-1.49,0.17
				c-0.57-0.35-0.68-0.9-0.54-1.39c-0.19,0.06-0.37,0.16-0.53,0.3l-16.76,13.25c0,0-0.44,0.73-0.47,0.77l-0.02,0.04
				c-0.65,1.06-0.31,2.46,0.75,3.1l0.04,0.02c0.89,0.54,2.01,0.39,2.73-0.3c-0.28,0.96,0.09,2.02,0.98,2.56l0.04,0.02
				c0.89,0.54,2.01,0.39,2.73-0.3c-0.28,0.95,0.09,2.02,0.98,2.56l0.04,0.02c0.89,0.54,2.01,0.39,2.73-0.3
				c-0.28,0.95,0.09,2.02,0.98,2.56l0.04,0.02c1.06,0.65,2.46,0.31,3.1-0.75l0.02-0.04C206.22,434.3,206.6,433.62,206.6,433.62z"/>
		</g>
		<g style="clip-path:url(#SVGID_00000134960971202841086830000017954847743380712836_);">
			<path class="st10" d="M49.48,546.72l-85.13-62.9l86.45-117c4.32-5.85,12.57-7.09,18.42-2.77l74.54,55.07L49.48,546.72z"/>
			<path class="st3" d="M130.65,424.51c2.58-3.49,7.02-4.79,10.94-3.55l-72.04-53.23c-4.49-3.32-10.81-2.37-14.13,2.12
				c-3.32,4.49-2.37,10.81,2.12,14.13l74.07,54.73l0.58-0.79C128.27,434.58,127.54,428.73,130.65,424.51z"/>
			
				<rect x="-26.53" y="419.61" transform="matrix(0.5943 -0.8043 0.8043 0.5943 -358.0814 229.7029)" class="st10" width="150.31" height="100.28"/>
			
				<ellipse transform="matrix(0.7235 -0.6903 0.6903 0.7235 -347.385 117.4791)" class="st10" cx="-27.03" cy="492.42" rx="11.97" ry="11.97"/>
			<polygon class="st11" points="44.29,560 -36.37,500.4 133.61,439.11 			"/>
			
				<rect x="50.6" y="422.33" transform="matrix(0.8043 0.5943 -0.5943 0.8043 271.1203 42.7705)" class="st3" width="40.06" height="21.27"/>
		</g>
		<g style="clip-path:url(#SVGID_00000134960971202841086830000017954847743380712836_);">
			<g>
				
					<rect x="686.12" y="332.32" transform="matrix(0.7353 -0.6777 0.6777 0.7353 -83.0461 605.7)" class="st12" width="95.54" height="153.68"/>
				<polygon class="st3" points="825,433.45 752.49,497.78 649.58,386.14 718.13,322.95 723.4,323.22 				"/>
				<polygon class="st12" points="828.13,434.13 760.2,496.74 751.7,498.29 647.55,385.29 655.59,384.16 723.97,321.12 				"/>
				<polygon class="st13" points="654.66,384.29 647.55,385.29 751.7,498.29 758.59,497.04 				"/>
			</g>
			<polygon class="st13" points="759.12,496.94 760.2,496.74 828.13,434.13 723.97,321.12 			"/>
		</g>
		<g style="clip-path:url(#SVGID_00000134960971202841086830000017954847743380712836_);">
			<g>
				
					<rect x="279.45" y="429.51" transform="matrix(0.9318 -0.3629 0.3629 0.9318 -160.8411 154.4746)" class="st3" width="102.66" height="151.76"/>
				<path class="st0" d="M262.18,455.64c0.34,0.87-0.09,1.86-0.97,2.2c-0.87,0.34-1.86-0.09-2.2-0.97c-0.34-0.87,0.09-1.86,0.97-2.2
					C260.85,454.33,261.84,454.77,262.18,455.64z"/>
				<path class="st0" d="M264.17,460.75c0.34,0.87-0.09,1.86-0.97,2.2c-0.87,0.34-1.86-0.09-2.2-0.97c-0.34-0.87,0.09-1.86,0.97-2.2
					C262.84,459.45,263.83,459.88,264.17,460.75z"/>
				<path class="st0" d="M266.16,465.87c0.34,0.87-0.09,1.86-0.97,2.2c-0.87,0.34-1.86-0.09-2.2-0.97c-0.34-0.87,0.09-1.86,0.97-2.2
					C264.84,464.56,265.82,464.99,266.16,465.87z"/>
				<path class="st0" d="M268.15,470.98c0.34,0.87-0.09,1.86-0.97,2.2c-0.87,0.34-1.86-0.09-2.2-0.97c-0.34-0.87,0.09-1.86,0.97-2.2
					C266.83,469.67,267.81,470.11,268.15,470.98z"/>
				<path class="st0" d="M270.14,476.1c0.34,0.87-0.09,1.86-0.97,2.2c-0.87,0.34-1.86-0.09-2.2-0.97c-0.34-0.87,0.09-1.86,0.97-2.2
					C268.82,474.79,269.8,475.22,270.14,476.1z"/>
				<path class="st0" d="M272.14,481.21c0.34,0.87-0.09,1.86-0.97,2.2c-0.87,0.34-1.86-0.09-2.2-0.97c-0.34-0.87,0.09-1.86,0.97-2.2
					C270.81,479.9,271.79,480.34,272.14,481.21z"/>
				<path class="st0" d="M274.13,486.32c0.34,0.87-0.09,1.86-0.97,2.2c-0.87,0.34-1.86-0.09-2.2-0.97s0.09-1.86,0.97-2.2
					C272.8,485.02,273.79,485.45,274.13,486.32z"/>
				<path class="st0" d="M276.12,491.44c0.34,0.87-0.09,1.86-0.97,2.2c-0.87,0.34-1.86-0.09-2.2-0.97c-0.34-0.87,0.09-1.86,0.97-2.2
					C274.79,490.13,275.78,490.56,276.12,491.44z"/>
				<path class="st0" d="M278.11,496.55c0.34,0.87-0.09,1.86-0.97,2.2c-0.87,0.34-1.86-0.09-2.2-0.97c-0.34-0.87,0.09-1.86,0.97-2.2
					C276.78,495.24,277.77,495.68,278.11,496.55z"/>
				<path class="st0" d="M280.1,501.67c0.34,0.87-0.09,1.86-0.97,2.2c-0.87,0.34-1.86-0.09-2.2-0.97s0.09-1.86,0.97-2.2
					C278.78,500.36,279.76,500.79,280.1,501.67z"/>
				<path class="st0" d="M282.09,506.78c0.34,0.87-0.09,1.86-0.97,2.2c-0.87,0.34-1.86-0.09-2.2-0.97c-0.34-0.87,0.09-1.86,0.97-2.2
					C280.77,505.47,281.75,505.91,282.09,506.78z"/>
				<path class="st0" d="M284.08,511.89c0.34,0.87-0.09,1.86-0.97,2.2c-0.87,0.34-1.86-0.09-2.2-0.97c-0.34-0.87,0.09-1.86,0.97-2.2
					C282.76,510.59,283.74,511.02,284.08,511.89z"/>
				<path class="st0" d="M286.08,517.01c0.34,0.87-0.09,1.86-0.97,2.2s-1.86-0.09-2.2-0.97c-0.34-0.87,0.09-1.86,0.97-2.2
					S285.73,516.13,286.08,517.01z"/>
				<path class="st0" d="M288.07,522.12c0.34,0.87-0.09,1.86-0.97,2.2c-0.87,0.34-1.86-0.09-2.2-0.97c-0.34-0.87,0.09-1.86,0.97-2.2
					C286.74,520.81,287.73,521.25,288.07,522.12z"/>
				<path class="st0" d="M290.06,527.24c0.34,0.87-0.09,1.86-0.97,2.2c-0.87,0.34-1.86-0.09-2.2-0.97c-0.34-0.87,0.09-1.86,0.97-2.2
					S289.72,526.36,290.06,527.24z"/>
				<path class="st0" d="M292.05,532.35c0.34,0.87-0.09,1.86-0.97,2.2c-0.87,0.34-1.86-0.09-2.2-0.97s0.09-1.86,0.97-2.2
					C290.72,531.04,291.71,531.47,292.05,532.35z"/>
				<path class="st0" d="M294.04,537.46c0.34,0.87-0.09,1.86-0.97,2.2s-1.86-0.09-2.2-0.97s0.09-1.86,0.97-2.2
					C292.72,536.16,293.7,536.59,294.04,537.46z"/>
				<path class="st0" d="M296.03,542.58c0.34,0.87-0.09,1.86-0.97,2.2c-0.87,0.34-1.86-0.09-2.2-0.97c-0.34-0.87,0.09-1.86,0.97-2.2
					C294.71,541.27,295.69,541.7,296.03,542.58z"/>
				<path class="st0" d="M298.02,547.69c0.34,0.87-0.09,1.86-0.97,2.2c-0.87,0.34-1.86-0.09-2.2-0.97c-0.34-0.87,0.09-1.86,0.97-2.2
					C296.7,546.38,297.68,546.82,298.02,547.69z"/>
				<path class="st0" d="M300.01,552.8c0.34,0.87-0.09,1.86-0.97,2.2c-0.87,0.34-1.86-0.09-2.2-0.97c-0.34-0.87,0.09-1.86,0.97-2.2
					C298.69,551.5,299.67,551.93,300.01,552.8z"/>
				<path class="st0" d="M302.01,557.92c0.34,0.87-0.09,1.86-0.97,2.2c-0.87,0.34-1.86-0.09-2.2-0.97c-0.34-0.87,0.09-1.86,0.97-2.2
					C300.68,556.61,301.67,557.04,302.01,557.92z"/>
				<path class="st0" d="M304,563.03c0.34,0.87-0.09,1.86-0.97,2.2c-0.87,0.34-1.86-0.09-2.2-0.97s0.09-1.86,0.97-2.2
					C302.67,561.73,303.66,562.16,304,563.03z"/>
				<path class="st0" d="M305.99,568.15c0.34,0.87-0.09,1.86-0.97,2.2s-1.86-0.09-2.2-0.97s0.09-1.86,0.97-2.2
					C304.66,566.84,305.65,567.27,305.99,568.15z"/>
				<path class="st0" d="M307.98,573.26c0.34,0.87-0.09,1.86-0.97,2.2c-0.87,0.34-1.86-0.09-2.2-0.97s0.09-1.86,0.97-2.2
					C306.66,571.95,307.64,572.39,307.98,573.26z"/>
				<path class="st0" d="M309.97,578.37c0.34,0.87-0.09,1.86-0.97,2.2s-1.86-0.09-2.2-0.97c-0.34-0.87,0.09-1.86,0.97-2.2
					C308.65,577.07,309.63,577.5,309.97,578.37z"/>
				<path class="st0" d="M311.96,583.49c0.34,0.87-0.09,1.86-0.97,2.2c-0.87,0.34-1.86-0.09-2.2-0.97c-0.34-0.87,0.09-1.86,0.97-2.2
					C310.64,582.18,311.62,582.61,311.96,583.49z"/>
				<path class="st0" d="M313.95,588.6c0.34,0.87-0.09,1.86-0.97,2.2s-1.86-0.09-2.2-0.97c-0.34-0.87,0.09-1.86,0.97-2.2
					C312.63,587.3,313.61,587.73,313.95,588.6z"/>
				<polygon class="st5" points="406.15,557.47 310.49,594.72 351.08,416.06 				"/>
			</g>
			<line class="st6" x1="272.44" y1="456.41" x2="345.49" y2="427.97"/>
			<line class="st6" x1="275.09" y1="463.23" x2="348.15" y2="434.78"/>
			<line class="st6" x1="277.75" y1="470.05" x2="350.8" y2="441.6"/>
			<line class="st6" x1="280.4" y1="476.87" x2="353.46" y2="448.42"/>
			<line class="st6" x1="283.06" y1="483.69" x2="356.11" y2="455.24"/>
			<line class="st6" x1="285.71" y1="490.51" x2="358.77" y2="462.06"/>
			<line class="st6" x1="288.37" y1="497.33" x2="361.42" y2="468.88"/>
			<line class="st6" x1="291.02" y1="504.14" x2="364.08" y2="475.7"/>
			<line class="st6" x1="293.68" y1="510.96" x2="366.73" y2="482.51"/>
			<line class="st6" x1="296.33" y1="517.78" x2="369.39" y2="489.33"/>
			<line class="st6" x1="298.99" y1="524.6" x2="372.04" y2="496.15"/>
			<line class="st6" x1="301.64" y1="531.42" x2="374.7" y2="502.97"/>
			<line class="st6" x1="304.3" y1="538.24" x2="377.35" y2="509.79"/>
			<line class="st6" x1="306.95" y1="545.06" x2="380.01" y2="516.61"/>
			<line class="st6" x1="309.61" y1="551.87" x2="382.66" y2="523.43"/>
			<line class="st6" x1="312.26" y1="558.69" x2="385.32" y2="530.24"/>
			<line class="st6" x1="314.92" y1="565.51" x2="387.97" y2="537.06"/>
			<line class="st6" x1="317.57" y1="572.33" x2="390.63" y2="543.88"/>
			<line class="st6" x1="320.23" y1="579.15" x2="393.29" y2="550.7"/>
		</g>
		<g style="clip-path:url(#SVGID_00000134960971202841086830000017954847743380712836_);">
			<g>
				
					<rect x="303.45" y="413.01" transform="matrix(0.9924 0.1229 -0.1229 0.9924 62.7756 -39.8973)" class="st3" width="102.66" height="151.76"/>
				<path class="st0" d="M318.01,412.54c-0.12,0.93-0.96,1.59-1.89,1.48c-0.93-0.12-1.59-0.96-1.48-1.89
					c0.12-0.93,0.96-1.59,1.89-1.48S318.13,411.61,318.01,412.54z"/>
				
					<ellipse transform="matrix(0.9895 -0.1444 0.1444 0.9895 -57.0099 49.9494)" class="st0" cx="315.65" cy="417.78" rx="1.7" ry="1.7"/>
				<path class="st0" d="M316.66,423.43c-0.12,0.93-0.96,1.59-1.89,1.48c-0.93-0.12-1.59-0.96-1.48-1.89
					c0.12-0.93,0.96-1.59,1.89-1.48S316.78,422.5,316.66,423.43z"/>
				<path class="st0" d="M315.99,428.88c-0.12,0.93-0.96,1.59-1.89,1.48c-0.93-0.12-1.59-0.96-1.48-1.89s0.96-1.59,1.89-1.48
					C315.44,427.1,316.1,427.95,315.99,428.88z"/>
				<path class="st0" d="M315.31,434.32c-0.12,0.93-0.96,1.59-1.89,1.48s-1.59-0.96-1.48-1.89s0.96-1.59,1.89-1.48
					C314.77,432.55,315.43,433.39,315.31,434.32z"/>
				<path class="st0" d="M314.64,439.77c-0.12,0.93-0.96,1.59-1.89,1.48c-0.93-0.12-1.59-0.96-1.48-1.89
					c0.12-0.93,0.96-1.59,1.89-1.48C314.09,437.99,314.75,438.84,314.64,439.77z"/>
				<path class="st0" d="M313.96,445.22c-0.12,0.93-0.96,1.59-1.89,1.48s-1.59-0.96-1.48-1.89c0.12-0.93,0.96-1.59,1.89-1.48
					C313.42,443.44,314.08,444.29,313.96,445.22z"/>
				<path class="st0" d="M313.29,450.66c-0.12,0.93-0.96,1.59-1.89,1.48s-1.59-0.96-1.48-1.89c0.12-0.93,0.96-1.59,1.89-1.48
					C312.74,448.88,313.4,449.73,313.29,450.66z"/>
				<path class="st0" d="M312.61,456.11c-0.12,0.93-0.96,1.59-1.89,1.48c-0.93-0.12-1.59-0.96-1.48-1.89s0.96-1.59,1.89-1.48
					C312.07,454.33,312.73,455.18,312.61,456.11z"/>
				<path class="st0" d="M311.94,461.56c-0.12,0.93-0.96,1.59-1.89,1.48c-0.93-0.12-1.59-0.96-1.48-1.89s0.96-1.59,1.89-1.48
					C311.39,459.78,312.05,460.63,311.94,461.56z"/>
				
					<ellipse transform="matrix(0.9864 -0.1642 0.1642 0.9864 -72.4396 57.163)" class="st0" cx="309.58" cy="466.79" rx="1.7" ry="1.7"/>
				<path class="st0" d="M310.59,472.45c-0.12,0.93-0.96,1.59-1.89,1.48c-0.93-0.12-1.59-0.96-1.48-1.89
					c0.12-0.93,0.96-1.59,1.89-1.48C310.04,470.67,310.71,471.52,310.59,472.45z"/>
				<path class="st0" d="M309.92,477.9c-0.12,0.93-0.96,1.59-1.89,1.48c-0.93-0.12-1.59-0.96-1.48-1.89
					c0.12-0.93,0.96-1.59,1.89-1.48S310.03,476.96,309.92,477.9z"/>
				<path class="st0" d="M309.24,483.34c-0.12,0.93-0.96,1.59-1.89,1.48c-0.93-0.12-1.59-0.96-1.48-1.89s0.96-1.59,1.89-1.48
					S309.36,482.41,309.24,483.34z"/>
				<path class="st0" d="M308.57,488.79c-0.12,0.93-0.96,1.59-1.89,1.48c-0.93-0.12-1.59-0.96-1.48-1.89s0.96-1.59,1.89-1.48
					S308.68,487.86,308.57,488.79z"/>
				<path class="st0" d="M307.89,494.23c-0.12,0.93-0.96,1.59-1.89,1.48c-0.93-0.12-1.59-0.96-1.48-1.89
					c0.12-0.93,0.96-1.59,1.89-1.48C307.35,492.46,308.01,493.3,307.89,494.23z"/>
				
					<ellipse transform="matrix(0.9874 -0.1582 0.1582 0.9874 -75.177 54.6319)" class="st0" cx="305.53" cy="499.47" rx="1.7" ry="1.7"/>
				<path class="st0" d="M306.54,505.13c-0.12,0.93-0.96,1.59-1.89,1.48c-0.93-0.12-1.59-0.96-1.48-1.89
					c0.12-0.93,0.96-1.59,1.89-1.48C306,503.35,306.66,504.2,306.54,505.13z"/>
				<path class="st0" d="M305.87,510.57c-0.12,0.93-0.96,1.59-1.89,1.48c-0.93-0.12-1.59-0.96-1.48-1.89s0.96-1.59,1.89-1.48
					C305.32,508.79,305.98,509.64,305.87,510.57z"/>
				<path class="st0" d="M305.19,516.02c-0.12,0.93-0.96,1.59-1.89,1.48s-1.59-0.96-1.48-1.89c0.12-0.93,0.96-1.59,1.89-1.48
					C304.65,514.24,305.31,515.09,305.19,516.02z"/>
				
					<ellipse transform="matrix(0.9864 -0.1642 0.1642 0.9864 -81.4733 56.7947)" class="st0" cx="302.83" cy="521.26" rx="1.7" ry="1.7"/>
				<path class="st0" d="M303.85,526.91c-0.12,0.93-0.96,1.59-1.89,1.48c-0.93-0.12-1.59-0.96-1.48-1.89
					c0.12-0.93,0.96-1.59,1.89-1.48C303.3,525.13,303.96,525.98,303.85,526.91z"/>
				<path class="st0" d="M303.17,532.36c-0.12,0.93-0.96,1.59-1.89,1.48c-0.93-0.12-1.59-0.96-1.48-1.89
					c0.12-0.93,0.96-1.59,1.89-1.48C302.63,530.58,303.29,531.43,303.17,532.36z"/>
				<path class="st0" d="M302.5,537.81c-0.12,0.93-0.96,1.59-1.89,1.48c-0.93-0.12-1.59-0.96-1.48-1.89
					c0.12-0.93,0.96-1.59,1.89-1.48S302.61,536.87,302.5,537.81z"/>
				<path class="st0" d="M301.82,543.25c-0.12,0.93-0.96,1.59-1.89,1.48c-0.93-0.12-1.59-0.96-1.48-1.89
					c0.12-0.93,0.96-1.59,1.89-1.48C301.28,541.47,301.94,542.32,301.82,543.25z"/>
				<path class="st0" d="M301.15,548.7c-0.12,0.93-0.96,1.59-1.89,1.48c-0.93-0.12-1.59-0.96-1.48-1.89
					c0.12-0.93,0.96-1.59,1.89-1.48C300.6,546.92,301.26,547.77,301.15,548.7z"/>
				
					<ellipse transform="matrix(0.9874 -0.1582 0.1582 0.9874 -83.8791 54.2508)" class="st0" cx="298.79" cy="553.94" rx="1.7" ry="1.7"/>
				<polygon class="st5" points="396.4,570.5 294.52,557.88 415.05,419.9 				"/>
			</g>
			<line class="st6" x1="326.67" y1="418.09" x2="404.48" y2="427.72"/>
			<line class="st6" x1="325.77" y1="425.35" x2="403.58" y2="434.99"/>
			<line class="st6" x1="324.87" y1="432.61" x2="402.68" y2="442.25"/>
			<line class="st6" x1="323.97" y1="439.87" x2="401.78" y2="449.51"/>
			<line class="st6" x1="323.07" y1="447.14" x2="400.88" y2="456.77"/>
			<line class="st6" x1="322.17" y1="454.4" x2="399.98" y2="464.03"/>
			<line class="st6" x1="321.27" y1="461.66" x2="399.08" y2="471.29"/>
			<line class="st6" x1="320.38" y1="468.92" x2="398.18" y2="478.56"/>
			<line class="st6" x1="319.48" y1="476.18" x2="397.28" y2="485.82"/>
			<line class="st6" x1="318.58" y1="483.44" x2="396.38" y2="493.08"/>
			<line class="st6" x1="317.68" y1="490.71" x2="395.48" y2="500.34"/>
			<line class="st6" x1="316.78" y1="497.97" x2="394.58" y2="507.6"/>
			<line class="st6" x1="315.88" y1="505.23" x2="393.68" y2="514.87"/>
			<line class="st6" x1="314.98" y1="512.49" x2="392.79" y2="522.13"/>
			<line class="st6" x1="314.08" y1="519.75" x2="391.89" y2="529.39"/>
			<line class="st6" x1="313.18" y1="527.02" x2="390.99" y2="536.65"/>
			<line class="st6" x1="312.28" y1="534.28" x2="390.09" y2="543.91"/>
			<line class="st6" x1="311.38" y1="541.54" x2="389.19" y2="551.18"/>
			<line class="st6" x1="310.48" y1="548.8" x2="388.29" y2="558.44"/>
		</g>
		<g style="clip-path:url(#SVGID_00000134960971202841086830000017954847743380712836_);">
			<g>
				
					<rect x="188.17" y="-66.18" transform="matrix(-0.9973 0.0739 -0.0739 -0.9973 482.8872 6.8908)" class="st3" width="106.28" height="157.11"/>
				<path class="st0" d="M294.13,82.43c-0.07-0.97,0.66-1.81,1.62-1.88c0.97-0.07,1.81,0.66,1.88,1.62
					c0.07,0.97-0.66,1.81-1.62,1.88C295.05,84.13,294.2,83.4,294.13,82.43z"/>
				<path class="st0" d="M293.71,76.77c-0.07-0.97,0.66-1.81,1.62-1.88c0.97-0.07,1.81,0.66,1.88,1.62
					c0.07,0.97-0.66,1.81-1.62,1.88C294.63,78.46,293.78,77.73,293.71,76.77z"/>
				<path class="st0" d="M293.29,71.1c-0.07-0.97,0.66-1.81,1.62-1.88c0.97-0.07,1.81,0.66,1.88,1.62c0.07,0.97-0.66,1.81-1.62,1.88
					S293.36,72.07,293.29,71.1z"/>
				<path class="st0" d="M292.87,65.43c-0.07-0.97,0.66-1.81,1.62-1.88c0.97-0.07,1.81,0.66,1.88,1.62
					c0.07,0.97-0.66,1.81-1.62,1.88C293.79,67.13,292.94,66.4,292.87,65.43z"/>
				<path class="st0" d="M292.45,59.77c-0.07-0.97,0.66-1.81,1.62-1.88c0.97-0.07,1.81,0.66,1.88,1.62
					c0.07,0.97-0.66,1.81-1.62,1.88C293.37,61.46,292.52,60.74,292.45,59.77z"/>
				<path class="st0" d="M292.03,54.1c-0.07-0.97,0.66-1.81,1.62-1.88c0.97-0.07,1.81,0.66,1.88,1.62c0.07,0.97-0.66,1.81-1.62,1.88
					C292.95,55.8,292.1,55.07,292.03,54.1z"/>
				<path class="st0" d="M291.61,48.43c-0.07-0.97,0.66-1.81,1.62-1.88c0.97-0.07,1.81,0.66,1.88,1.62
					c0.07,0.97-0.66,1.81-1.62,1.88C292.53,50.13,291.69,49.4,291.61,48.43z"/>
				<path class="st0" d="M291.19,42.77c-0.07-0.97,0.66-1.81,1.62-1.88c0.97-0.07,1.81,0.66,1.88,1.62
					c0.07,0.97-0.66,1.81-1.62,1.88C292.11,44.46,291.27,43.74,291.19,42.77z"/>
				<path class="st0" d="M290.77,37.1c-0.07-0.97,0.66-1.81,1.62-1.88c0.97-0.07,1.81,0.66,1.88,1.62c0.07,0.97-0.66,1.81-1.62,1.88
					C291.69,38.8,290.85,38.07,290.77,37.1z"/>
				<path class="st0" d="M290.35,31.44c-0.07-0.97,0.66-1.81,1.62-1.88c0.97-0.07,1.81,0.66,1.88,1.62
					c0.07,0.97-0.66,1.81-1.62,1.88C291.27,33.13,290.43,32.4,290.35,31.44z"/>
				<path class="st0" d="M289.94,25.77c-0.07-0.97,0.66-1.81,1.62-1.88c0.97-0.07,1.81,0.66,1.88,1.62
					c0.07,0.97-0.66,1.81-1.62,1.88S290.01,26.74,289.94,25.77z"/>
				<path class="st0" d="M289.52,20.1c-0.07-0.97,0.66-1.81,1.62-1.88c0.97-0.07,1.81,0.66,1.88,1.62c0.07,0.97-0.66,1.81-1.62,1.88
					C290.43,21.8,289.59,21.07,289.52,20.1z"/>
				<path class="st0" d="M289.1,14.44c-0.07-0.97,0.66-1.81,1.62-1.88c0.97-0.07,1.81,0.66,1.88,1.62c0.07,0.97-0.66,1.81-1.62,1.88
					C290.01,16.13,289.17,15.41,289.1,14.44z"/>
				<path class="st0" d="M288.68,8.77c-0.07-0.97,0.66-1.81,1.62-1.88c0.97-0.07,1.81,0.66,1.88,1.62c0.07,0.97-0.66,1.81-1.62,1.88
					C289.59,10.47,288.75,9.74,288.68,8.77z"/>
				<path class="st0" d="M288.26,3.1c-0.07-0.97,0.66-1.81,1.62-1.88c0.97-0.07,1.81,0.66,1.88,1.62c0.07,0.97-0.66,1.81-1.62,1.88
					C289.17,4.8,288.33,4.07,288.26,3.1z"/>
				<path class="st0" d="M287.84-2.56c-0.07-0.97,0.66-1.81,1.62-1.88s1.81,0.66,1.88,1.62c0.07,0.97-0.66,1.81-1.62,1.88
					C288.75-0.87,287.91-1.59,287.84-2.56z"/>
				<path class="st0" d="M287.42-8.23c-0.07-0.97,0.66-1.81,1.62-1.88s1.81,0.66,1.88,1.62c0.07,0.97-0.66,1.81-1.62,1.88
					C288.33-6.53,287.49-7.26,287.42-8.23z"/>
				<path class="st0" d="M287-13.89c-0.07-0.97,0.66-1.81,1.62-1.88c0.97-0.07,1.81,0.66,1.88,1.62c0.07,0.97-0.66,1.81-1.62,1.88
					C287.91-12.2,287.07-12.93,287-13.89z"/>
				<path class="st0" d="M286.58-19.56c-0.07-0.97,0.66-1.81,1.62-1.88c0.97-0.07,1.81,0.66,1.88,1.62
					c0.07,0.97-0.66,1.81-1.62,1.88C287.49-17.86,286.65-18.59,286.58-19.56z"/>
				<path class="st0" d="M286.16-25.23c-0.07-0.97,0.66-1.81,1.62-1.88c0.97-0.07,1.81,0.66,1.88,1.62
					c0.07,0.97-0.66,1.81-1.62,1.88C287.07-23.53,286.23-24.26,286.16-25.23z"/>
				<path class="st0" d="M285.74-30.89c-0.07-0.97,0.66-1.81,1.62-1.88c0.97-0.07,1.81,0.66,1.88,1.62
					c0.07,0.97-0.66,1.81-1.62,1.88C286.65-29.2,285.81-29.92,285.74-30.89z"/>
				<path class="st0" d="M285.32-36.56c-0.07-0.97,0.66-1.81,1.62-1.88c0.97-0.07,1.81,0.66,1.88,1.62
					c0.07,0.97-0.66,1.81-1.62,1.88C286.23-34.86,285.39-35.59,285.32-36.56z"/>
				<path class="st0" d="M284.9-42.23c-0.07-0.97,0.66-1.81,1.62-1.88c0.97-0.07,1.81,0.66,1.88,1.62c0.07,0.97-0.66,1.81-1.62,1.88
					C285.82-40.53,284.97-41.26,284.9-42.23z"/>
				<path class="st0" d="M284.48-47.89c-0.07-0.97,0.66-1.81,1.62-1.88c0.97-0.07,1.81,0.66,1.88,1.62
					c0.07,0.97-0.66,1.81-1.62,1.88C285.4-46.2,284.55-46.92,284.48-47.89z"/>
				<path class="st0" d="M284.06-53.56c-0.07-0.97,0.66-1.81,1.62-1.88s1.81,0.66,1.88,1.62c0.07,0.97-0.66,1.81-1.62,1.88
					C284.98-51.86,284.13-52.59,284.06-53.56z"/>
				<path class="st0" d="M283.64-59.22c-0.07-0.97,0.66-1.81,1.62-1.88c0.97-0.07,1.81,0.66,1.88,1.62
					c0.07,0.97-0.66,1.81-1.62,1.88S283.71-58.26,283.64-59.22z"/>
				<path class="st0" d="M283.22-64.89c-0.07-0.97,0.66-1.81,1.62-1.88c0.97-0.07,1.81,0.66,1.88,1.62
					c0.07,0.97-0.66,1.81-1.62,1.88S283.29-63.92,283.22-64.89z"/>
				<polygon class="st5" points="182.52,-62.04 288.51,-69.89 194.12,94.64 				"/>
			</g>
			<line class="st6" x1="284.21" y1="78.55" x2="203.27" y2="84.55"/>
			<line class="st6" x1="283.65" y1="71" x2="202.71" y2="76.99"/>
			<line class="st6" x1="283.09" y1="63.44" x2="202.15" y2="69.44"/>
			<line class="st6" x1="282.53" y1="55.89" x2="201.59" y2="61.88"/>
			<line class="st6" x1="281.97" y1="48.33" x2="201.03" y2="54.33"/>
			<line class="st6" x1="281.42" y1="40.78" x2="200.47" y2="46.77"/>
			<line class="st6" x1="280.86" y1="33.22" x2="199.91" y2="39.22"/>
			<line class="st6" x1="280.3" y1="25.67" x2="199.35" y2="31.66"/>
			<line class="st6" x1="279.74" y1="18.11" x2="198.79" y2="24.11"/>
			<line class="st6" x1="279.18" y1="10.56" x2="198.23" y2="16.55"/>
			<line class="st6" x1="278.62" y1="3" x2="197.67" y2="9"/>
			<line class="st6" x1="278.06" y1="-4.55" x2="197.11" y2="1.44"/>
			<line class="st6" x1="277.5" y1="-12.11" x2="196.55" y2="-6.11"/>
			<line class="st6" x1="276.94" y1="-19.66" x2="195.99" y2="-13.67"/>
			<line class="st6" x1="276.38" y1="-27.22" x2="195.43" y2="-21.22"/>
			<line class="st6" x1="275.82" y1="-34.77" x2="194.87" y2="-28.78"/>
			<line class="st6" x1="275.26" y1="-42.33" x2="194.32" y2="-36.33"/>
			<line class="st6" x1="274.7" y1="-49.88" x2="193.76" y2="-43.89"/>
			<line class="st6" x1="274.14" y1="-57.44" x2="193.2" y2="-51.44"/>
		</g>
		<g style="clip-path:url(#SVGID_00000134960971202841086830000017954847743380712836_);">
			<g>
				
					<rect x="474.32" y="-88.81" transform="matrix(-0.9559 -0.2938 0.2938 -0.9559 1036.5964 138.986)" class="st3" width="108.84" height="160.89"/>
				<path class="st0" d="M553.03,78.13c0.29-0.95,1.3-1.48,2.25-1.19c0.95,0.29,1.48,1.3,1.19,2.25c-0.29,0.95-1.3,1.48-2.25,1.19
					C553.28,80.09,552.74,79.08,553.03,78.13z"/>
				<path class="st0" d="M554.74,72.57c0.29-0.95,1.3-1.48,2.25-1.19c0.95,0.29,1.48,1.3,1.19,2.25c-0.29,0.95-1.3,1.48-2.25,1.19
					C554.99,74.53,554.45,73.52,554.74,72.57z"/>
				<path class="st0" d="M556.45,67.01c0.29-0.95,1.3-1.48,2.25-1.19s1.48,1.3,1.19,2.25c-0.29,0.95-1.3,1.48-2.25,1.19
					C556.69,68.97,556.16,67.96,556.45,67.01z"/>
				<path class="st0" d="M558.16,61.45c0.29-0.95,1.3-1.48,2.25-1.19c0.95,0.29,1.48,1.3,1.19,2.25c-0.29,0.95-1.3,1.48-2.25,1.19
					C558.4,63.41,557.87,62.4,558.16,61.45z"/>
				<path class="st0" d="M559.87,55.89c0.29-0.95,1.3-1.48,2.25-1.19s1.48,1.3,1.19,2.25c-0.29,0.95-1.3,1.48-2.25,1.19
					C560.11,57.84,559.58,56.84,559.87,55.89z"/>
				<path class="st0" d="M561.58,50.32c0.29-0.95,1.3-1.48,2.25-1.19c0.95,0.29,1.48,1.3,1.19,2.25c-0.29,0.95-1.3,1.48-2.25,1.19
					C561.82,52.28,561.29,51.27,561.58,50.32z"/>
				<path class="st0" d="M563.29,44.76c0.29-0.95,1.3-1.48,2.25-1.19c0.95,0.29,1.48,1.3,1.19,2.25c-0.29,0.95-1.3,1.48-2.25,1.19
					C563.53,46.72,563,45.71,563.29,44.76z"/>
				<path class="st0" d="M565,39.2c0.29-0.95,1.3-1.48,2.25-1.19c0.95,0.29,1.48,1.3,1.19,2.25c-0.29,0.95-1.3,1.48-2.25,1.19
					C565.24,41.16,564.71,40.15,565,39.2z"/>
				<path class="st0" d="M566.71,33.64c0.29-0.95,1.3-1.48,2.25-1.19c0.95,0.29,1.48,1.3,1.19,2.25c-0.29,0.95-1.3,1.48-2.25,1.19
					C566.95,35.6,566.42,34.59,566.71,33.64z"/>
				<path class="st0" d="M568.42,28.08c0.29-0.95,1.3-1.48,2.25-1.19c0.95,0.29,1.48,1.3,1.19,2.25c-0.29,0.95-1.3,1.48-2.25,1.19
					C568.66,30.04,568.13,29.03,568.42,28.08z"/>
				<path class="st0" d="M570.13,22.52c0.29-0.95,1.3-1.48,2.25-1.19c0.95,0.29,1.48,1.3,1.19,2.25c-0.29,0.95-1.3,1.48-2.25,1.19
					C570.37,24.48,569.84,23.47,570.13,22.52z"/>
				<path class="st0" d="M571.84,16.96c0.29-0.95,1.3-1.48,2.25-1.19c0.95,0.29,1.48,1.3,1.19,2.25c-0.29,0.95-1.3,1.48-2.25,1.19
					S571.55,17.91,571.84,16.96z"/>
				<path class="st0" d="M573.55,11.39c0.29-0.95,1.3-1.48,2.25-1.19s1.48,1.3,1.19,2.25c-0.29,0.95-1.3,1.48-2.25,1.19
					C573.79,13.35,573.26,12.34,573.55,11.39z"/>
				<path class="st0" d="M575.26,5.83c0.29-0.95,1.3-1.48,2.25-1.19c0.95,0.29,1.48,1.3,1.19,2.25c-0.29,0.95-1.3,1.48-2.25,1.19
					C575.5,7.79,574.96,6.78,575.26,5.83z"/>
				<path class="st0" d="M576.97,0.27c0.29-0.95,1.3-1.48,2.25-1.19c0.95,0.29,1.48,1.3,1.19,2.25c-0.29,0.95-1.3,1.48-2.25,1.19
					C577.21,2.23,576.67,1.22,576.97,0.27z"/>
				<path class="st0" d="M578.68-5.29c0.29-0.95,1.3-1.48,2.25-1.19c0.95,0.29,1.48,1.3,1.19,2.25c-0.29,0.95-1.3,1.48-2.25,1.19
					C578.92-3.33,578.38-4.34,578.68-5.29z"/>
				<path class="st0" d="M580.39-10.85c0.29-0.95,1.3-1.48,2.25-1.19s1.48,1.3,1.19,2.25c-0.29,0.95-1.3,1.48-2.25,1.19
					C580.63-8.89,580.09-9.9,580.39-10.85z"/>
				<path class="st0" d="M582.09-16.41c0.29-0.95,1.3-1.48,2.25-1.19s1.48,1.3,1.19,2.25c-0.29,0.95-1.3,1.48-2.25,1.19
					C582.34-14.45,581.8-15.46,582.09-16.41z"/>
				<path class="st0" d="M583.8-21.97c0.29-0.95,1.3-1.48,2.25-1.19c0.95,0.29,1.48,1.3,1.19,2.25c-0.29,0.95-1.3,1.48-2.25,1.19
					C584.05-20.02,583.51-21.02,583.8-21.97z"/>
				<path class="st0" d="M585.51-27.54c0.29-0.95,1.3-1.48,2.25-1.19c0.95,0.29,1.48,1.3,1.19,2.25c-0.29,0.95-1.3,1.48-2.25,1.19
					S585.22-26.59,585.51-27.54z"/>
				<path class="st0" d="M587.22-33.1c0.29-0.95,1.3-1.48,2.25-1.19c0.95,0.29,1.48,1.3,1.19,2.25c-0.29,0.95-1.3,1.48-2.25,1.19
					C587.46-31.14,586.93-32.15,587.22-33.1z"/>
				<path class="st0" d="M588.93-38.66c0.29-0.95,1.3-1.48,2.25-1.19c0.95,0.29,1.48,1.3,1.19,2.25c-0.29,0.95-1.3,1.48-2.25,1.19
					C589.17-36.7,588.64-37.71,588.93-38.66z"/>
				<path class="st0" d="M590.64-44.22c0.29-0.95,1.3-1.48,2.25-1.19c0.95,0.29,1.48,1.3,1.19,2.25c-0.29,0.95-1.3,1.48-2.25,1.19
					C590.88-42.26,590.35-43.27,590.64-44.22z"/>
				<path class="st0" d="M592.35-49.78c0.29-0.95,1.3-1.48,2.25-1.19c0.95,0.29,1.48,1.3,1.19,2.25s-1.3,1.48-2.25,1.19
					C592.59-47.82,592.06-48.83,592.35-49.78z"/>
				<path class="st0" d="M594.06-55.34c0.29-0.95,1.3-1.48,2.25-1.19c0.95,0.29,1.48,1.3,1.19,2.25c-0.29,0.95-1.3,1.48-2.25,1.19
					C594.3-53.38,593.77-54.39,594.06-55.34z"/>
				<path class="st0" d="M595.77-60.9c0.29-0.95,1.3-1.48,2.25-1.19c0.95,0.29,1.48,1.3,1.19,2.25c-0.29,0.95-1.3,1.48-2.25,1.19
					C596.01-58.95,595.48-59.95,595.77-60.9z"/>
				<path class="st0" d="M597.48-66.47c0.29-0.95,1.3-1.48,2.25-1.19c0.95,0.29,1.48,1.3,1.19,2.25c-0.29,0.95-1.3,1.48-2.25,1.19
					S597.19-65.52,597.48-66.47z"/>
				<polygon class="st5" points="500.36,-101.25 604.39,-69.27 453.09,52.54 				"/>
			</g>
			<line class="st6" x1="545.02" y1="70.74" x2="465.57" y2="46.32"/>
			<line class="st6" x1="547.3" y1="63.32" x2="467.85" y2="38.9"/>
			<line class="st6" x1="549.58" y1="55.91" x2="470.13" y2="31.49"/>
			<line class="st6" x1="551.85" y1="48.49" x2="472.41" y2="24.07"/>
			<line class="st6" x1="554.13" y1="41.08" x2="474.68" y2="16.66"/>
			<line class="st6" x1="556.41" y1="33.66" x2="476.96" y2="9.24"/>
			<line class="st6" x1="558.69" y1="26.25" x2="479.24" y2="1.83"/>
			<line class="st6" x1="560.97" y1="18.83" x2="481.52" y2="-5.59"/>
			<line class="st6" x1="563.25" y1="11.42" x2="483.8" y2="-13"/>
			<line class="st6" x1="565.53" y1="4" x2="486.08" y2="-20.42"/>
			<line class="st6" x1="567.81" y1="-3.41" x2="488.36" y2="-27.83"/>
			<line class="st6" x1="570.09" y1="-10.83" x2="490.64" y2="-35.25"/>
			<line class="st6" x1="572.37" y1="-18.24" x2="492.92" y2="-42.66"/>
			<line class="st6" x1="574.65" y1="-25.66" x2="495.2" y2="-50.08"/>
			<line class="st6" x1="576.93" y1="-33.07" x2="497.48" y2="-57.49"/>
			<line class="st6" x1="579.21" y1="-40.49" x2="499.76" y2="-64.91"/>
			<line class="st6" x1="581.48" y1="-47.9" x2="502.04" y2="-72.32"/>
			<line class="st6" x1="583.76" y1="-55.32" x2="504.31" y2="-79.74"/>
			<line class="st6" x1="586.04" y1="-62.74" x2="506.59" y2="-87.16"/>
		</g>
		<g style="clip-path:url(#SVGID_00000134960971202841086830000017954847743380712836_);">
			<g>
				
					<rect x="624.86" y="-56.64" transform="matrix(0.6359 0.7718 -0.7718 0.6359 265.4961 -515.5573)" class="st3" width="108.55" height="160.47"/>
				<path class="st0" d="M706.44-61.75c-0.77,0.63-1.9,0.52-2.53-0.24c-0.63-0.77-0.52-1.9,0.24-2.53c0.77-0.63,1.9-0.52,2.53,0.24
					C707.31-63.51,707.2-62.38,706.44-61.75z"/>
				<path class="st0" d="M701.96-58.06c-0.77,0.63-1.9,0.52-2.53-0.24c-0.63-0.77-0.52-1.9,0.24-2.53c0.77-0.63,1.9-0.52,2.53,0.24
					S702.73-58.69,701.96-58.06z"/>
				<path class="st0" d="M697.48-54.37c-0.77,0.63-1.9,0.52-2.53-0.24c-0.63-0.77-0.52-1.9,0.24-2.53s1.9-0.52,2.53,0.24
					C698.36-56.13,698.25-55,697.48-54.37z"/>
				<path class="st0" d="M693-50.68c-0.77,0.63-1.9,0.52-2.53-0.24c-0.63-0.77-0.52-1.9,0.24-2.53c0.77-0.63,1.9-0.52,2.53,0.24
					C693.88-52.44,693.77-51.31,693-50.68z"/>
				<path class="st0" d="M688.52-46.99c-0.77,0.63-1.9,0.52-2.53-0.24c-0.63-0.77-0.52-1.9,0.24-2.53c0.77-0.63,1.9-0.52,2.53,0.24
					S689.29-47.62,688.52-46.99z"/>
				<path class="st0" d="M684.05-43.3c-0.77,0.63-1.9,0.52-2.53-0.24c-0.63-0.77-0.52-1.9,0.24-2.53c0.77-0.63,1.9-0.52,2.53,0.24
					C684.92-45.06,684.81-43.93,684.05-43.3z"/>
				<path class="st0" d="M679.57-39.61c-0.77,0.63-1.9,0.52-2.53-0.24c-0.63-0.77-0.52-1.9,0.24-2.53c0.77-0.63,1.9-0.52,2.53,0.24
					C680.44-41.37,680.33-40.24,679.57-39.61z"/>
				<path class="st0" d="M675.09-35.92c-0.77,0.63-1.9,0.52-2.53-0.24c-0.63-0.77-0.52-1.9,0.24-2.53c0.77-0.63,1.9-0.52,2.53,0.24
					C675.96-37.69,675.85-36.55,675.09-35.92z"/>
				<path class="st0" d="M670.61-32.23c-0.77,0.63-1.9,0.52-2.53-0.24c-0.63-0.77-0.52-1.9,0.24-2.53c0.77-0.63,1.9-0.52,2.53,0.24
					C671.48-33.99,671.38-32.86,670.61-32.23z"/>
				<path class="st0" d="M666.13-28.54c-0.77,0.63-1.9,0.52-2.53-0.24s-0.52-1.9,0.24-2.53c0.77-0.63,1.9-0.52,2.53,0.24
					C667.01-30.31,666.9-29.17,666.13-28.54z"/>
				<path class="st0" d="M661.65-24.85c-0.77,0.63-1.9,0.52-2.53-0.24s-0.52-1.9,0.24-2.53s1.9-0.52,2.53,0.24
					S662.42-25.48,661.65-24.85z"/>
				<path class="st0" d="M657.17-21.16c-0.77,0.63-1.9,0.52-2.53-0.24s-0.52-1.9,0.24-2.53c0.77-0.63,1.9-0.52,2.53,0.24
					S657.94-21.79,657.17-21.16z"/>
				<path class="st0" d="M652.7-17.47c-0.77,0.63-1.9,0.52-2.53-0.24c-0.63-0.77-0.52-1.9,0.24-2.53c0.77-0.63,1.9-0.52,2.53,0.24
					C653.57-19.24,653.46-18.1,652.7-17.47z"/>
				<path class="st0" d="M648.22-13.78c-0.77,0.63-1.9,0.52-2.53-0.24c-0.63-0.77-0.52-1.9,0.24-2.53c0.77-0.63,1.9-0.52,2.53,0.24
					C649.09-15.55,648.98-14.41,648.22-13.78z"/>
				<path class="st0" d="M643.74-10.09c-0.77,0.63-1.9,0.52-2.53-0.24s-0.52-1.9,0.24-2.53c0.77-0.63,1.9-0.52,2.53,0.24
					S644.5-10.72,643.74-10.09z"/>
				<path class="st0" d="M639.26-6.4c-0.77,0.63-1.9,0.52-2.53-0.24s-0.52-1.9,0.24-2.53c0.77-0.63,1.9-0.52,2.53,0.24
					S640.03-7.03,639.26-6.4z"/>
				<path class="st0" d="M634.78-2.71c-0.77,0.63-1.9,0.52-2.53-0.24c-0.63-0.77-0.52-1.9,0.24-2.53c0.77-0.63,1.9-0.52,2.53,0.24
					C635.66-4.47,635.55-3.34,634.78-2.71z"/>
				<path class="st0" d="M630.3,0.98c-0.77,0.63-1.9,0.52-2.53-0.24s-0.52-1.9,0.24-2.53s1.9-0.52,2.53,0.24S631.07,0.35,630.3,0.98
					z"/>
				<path class="st0" d="M625.82,4.67c-0.77,0.63-1.9,0.52-2.53-0.24c-0.63-0.77-0.52-1.9,0.24-2.53c0.77-0.63,1.9-0.52,2.53,0.24
					S626.59,4.04,625.82,4.67z"/>
				<path class="st0" d="M621.34,8.36c-0.77,0.63-1.9,0.52-2.53-0.24s-0.52-1.9,0.24-2.53c0.77-0.63,1.9-0.52,2.53,0.24
					C622.22,6.59,622.11,7.73,621.34,8.36z"/>
				<path class="st0" d="M616.87,12.05c-0.77,0.63-1.9,0.52-2.53-0.24c-0.63-0.77-0.52-1.9,0.24-2.53c0.77-0.63,1.9-0.52,2.53,0.24
					C617.74,10.28,617.63,11.42,616.87,12.05z"/>
				<path class="st0" d="M612.39,15.74c-0.77,0.63-1.9,0.52-2.53-0.24c-0.63-0.77-0.52-1.9,0.24-2.53c0.77-0.63,1.9-0.52,2.53,0.24
					S613.15,15.11,612.39,15.74z"/>
				<path class="st0" d="M607.91,19.43c-0.77,0.63-1.9,0.52-2.53-0.24s-0.52-1.9,0.24-2.53c0.77-0.63,1.9-0.52,2.53,0.24
					S608.67,18.8,607.91,19.43z"/>
				<path class="st0" d="M603.43,23.12c-0.77,0.63-1.9,0.52-2.53-0.24c-0.63-0.77-0.52-1.9,0.24-2.53c0.77-0.63,1.9-0.52,2.53,0.24
					S604.2,22.49,603.43,23.12z"/>
				<path class="st0" d="M598.95,26.81c-0.77,0.63-1.9,0.52-2.53-0.24s-0.52-1.9,0.24-2.53c0.77-0.63,1.9-0.52,2.53,0.24
					S599.72,26.18,598.95,26.81z"/>
				<path class="st0" d="M594.47,30.5c-0.77,0.63-1.9,0.52-2.53-0.24c-0.63-0.77-0.52-1.9,0.24-2.53c0.77-0.63,1.9-0.52,2.53,0.24
					C595.35,28.74,595.24,29.87,594.47,30.5z"/>
				<path class="st0" d="M589.99,34.19c-0.77,0.63-1.9,0.52-2.53-0.24c-0.63-0.77-0.52-1.9,0.24-2.53c0.77-0.63,1.9-0.52,2.53,0.24
					C590.87,32.42,590.76,33.56,589.99,34.19z"/>
				<polygon class="st5" points="651.73,116.5 582.7,32.73 775.57,14.47 				"/>
			</g>
			<line class="st6" x1="709.05" y1="-51.19" x2="761.77" y2="12.79"/>
			<line class="st6" x1="703.08" y1="-46.27" x2="755.79" y2="17.71"/>
			<line class="st6" x1="697.11" y1="-41.35" x2="749.82" y2="22.63"/>
			<line class="st6" x1="691.14" y1="-36.43" x2="743.85" y2="27.55"/>
			<line class="st6" x1="685.17" y1="-31.51" x2="737.88" y2="32.47"/>
			<line class="st6" x1="679.19" y1="-26.59" x2="731.91" y2="37.39"/>
			<line class="st6" x1="673.22" y1="-21.67" x2="725.94" y2="42.31"/>
			<line class="st6" x1="667.25" y1="-16.75" x2="719.96" y2="47.23"/>
			<line class="st6" x1="661.28" y1="-11.83" x2="713.99" y2="52.15"/>
			<line class="st6" x1="655.31" y1="-6.91" x2="708.02" y2="57.07"/>
			<line class="st6" x1="649.34" y1="-1.99" x2="702.05" y2="61.99"/>
			<line class="st6" x1="643.36" y1="2.93" x2="696.08" y2="66.91"/>
			<line class="st6" x1="637.39" y1="7.85" x2="690.11" y2="71.83"/>
			<line class="st6" x1="631.42" y1="12.77" x2="684.14" y2="76.75"/>
			<line class="st6" x1="625.45" y1="17.69" x2="678.16" y2="81.67"/>
			<line class="st6" x1="619.48" y1="22.61" x2="672.19" y2="86.59"/>
			<line class="st6" x1="613.51" y1="27.53" x2="666.22" y2="91.51"/>
			<line class="st6" x1="607.54" y1="32.45" x2="660.25" y2="96.43"/>
			<line class="st6" x1="601.56" y1="37.37" x2="654.28" y2="101.35"/>
		</g>
		<g style="clip-path:url(#SVGID_00000134960971202841086830000017954847743380712836_);">
			<g>
				
					<rect x="660.19" y="6.79" transform="matrix(0.9027 0.4303 -0.4303 0.9027 106.9563 -298.9404)" class="st3" width="108.55" height="160.47"/>
				<path class="st0" d="M703.09-1.86c-0.43,0.9-1.5,1.28-2.39,0.85c-0.9-0.43-1.28-1.5-0.85-2.39s1.5-1.28,2.39-0.85
					C703.14-3.83,703.52-2.76,703.09-1.86z"/>
				<path class="st0" d="M700.6,3.38c-0.43,0.9-1.5,1.28-2.39,0.85c-0.9-0.43-1.28-1.5-0.85-2.39c0.43-0.9,1.5-1.28,2.39-0.85
					C700.64,1.41,701.02,2.48,700.6,3.38z"/>
				<path class="st0" d="M698.1,8.62c-0.43,0.9-1.5,1.28-2.39,0.85c-0.9-0.43-1.28-1.5-0.85-2.39c0.43-0.9,1.5-1.28,2.39-0.85
					C698.15,6.65,698.53,7.72,698.1,8.62z"/>
				<path class="st0" d="M695.6,13.85c-0.43,0.9-1.5,1.28-2.39,0.85c-0.9-0.43-1.28-1.5-0.85-2.39c0.43-0.9,1.5-1.28,2.39-0.85
					C695.65,11.89,696.03,12.96,695.6,13.85z"/>
				<path class="st0" d="M693.11,19.09c-0.43,0.9-1.5,1.28-2.39,0.85s-1.28-1.5-0.85-2.39c0.43-0.9,1.5-1.28,2.39-0.85
					C693.15,17.12,693.53,18.2,693.11,19.09z"/>
				<path class="st0" d="M690.61,24.33c-0.43,0.9-1.5,1.28-2.39,0.85c-0.9-0.43-1.28-1.5-0.85-2.39c0.43-0.9,1.5-1.28,2.39-0.85
					C690.66,22.36,691.04,23.43,690.61,24.33z"/>
				<path class="st0" d="M688.11,29.57c-0.43,0.9-1.5,1.28-2.39,0.85c-0.9-0.43-1.28-1.5-0.85-2.39c0.43-0.9,1.5-1.28,2.39-0.85
					C688.16,27.6,688.54,28.67,688.11,29.57z"/>
				<path class="st0" d="M685.62,34.81c-0.43,0.9-1.5,1.28-2.39,0.85c-0.9-0.43-1.28-1.5-0.85-2.39c0.43-0.9,1.5-1.28,2.39-0.85
					S686.04,33.91,685.62,34.81z"/>
				<path class="st0" d="M683.12,40.05c-0.43,0.9-1.5,1.28-2.39,0.85s-1.28-1.5-0.85-2.39c0.43-0.9,1.5-1.28,2.39-0.85
					S683.55,39.15,683.12,40.05z"/>
				<path class="st0" d="M680.62,45.28c-0.43,0.9-1.5,1.28-2.39,0.85c-0.9-0.43-1.28-1.5-0.85-2.39c0.43-0.9,1.5-1.28,2.39-0.85
					C680.67,43.32,681.05,44.39,680.62,45.28z"/>
				<path class="st0" d="M678.13,50.52c-0.43,0.9-1.5,1.28-2.39,0.85c-0.9-0.43-1.28-1.5-0.85-2.39c0.43-0.9,1.5-1.28,2.39-0.85
					C678.17,48.55,678.55,49.63,678.13,50.52z"/>
				<path class="st0" d="M675.63,55.76c-0.43,0.9-1.5,1.28-2.39,0.85c-0.9-0.43-1.28-1.5-0.85-2.39c0.43-0.9,1.5-1.28,2.39-0.85
					C675.68,53.79,676.06,54.87,675.63,55.76z"/>
				<path class="st0" d="M673.13,61c-0.43,0.9-1.5,1.28-2.39,0.85s-1.28-1.5-0.85-2.39s1.5-1.28,2.39-0.85S673.56,60.1,673.13,61z"
					/>
				
					<ellipse transform="matrix(0.6355 -0.7721 0.7721 0.6355 193.3375 540.4351)" class="st0" cx="669.01" cy="65.46" rx="1.8" ry="1.8"/>
				<path class="st0" d="M668.14,71.48c-0.43,0.9-1.5,1.28-2.39,0.85c-0.9-0.43-1.28-1.5-0.85-2.39c0.43-0.9,1.5-1.28,2.39-0.85
					C668.19,69.51,668.57,70.58,668.14,71.48z"/>
				<path class="st0" d="M665.64,76.71c-0.43,0.9-1.5,1.28-2.39,0.85c-0.9-0.43-1.28-1.5-0.85-2.39c0.43-0.9,1.5-1.28,2.39-0.85
					C665.69,74.75,666.07,75.82,665.64,76.71z"/>
				<path class="st0" d="M663.15,81.95c-0.43,0.9-1.5,1.28-2.39,0.85c-0.9-0.43-1.28-1.5-0.85-2.39c0.43-0.9,1.5-1.28,2.39-0.85
					C663.19,79.98,663.57,81.06,663.15,81.95z"/>
				<path class="st0" d="M660.65,87.19c-0.43,0.9-1.5,1.28-2.39,0.85c-0.9-0.43-1.28-1.5-0.85-2.39c0.43-0.9,1.5-1.28,2.39-0.85
					C660.7,85.22,661.08,86.3,660.65,87.19z"/>
				<path class="st0" d="M658.15,92.43c-0.43,0.9-1.5,1.28-2.39,0.85c-0.9-0.43-1.28-1.5-0.85-2.39c0.43-0.9,1.5-1.28,2.39-0.85
					C658.2,90.46,658.58,91.53,658.15,92.43z"/>
				<path class="st0" d="M655.65,97.67c-0.43,0.9-1.5,1.28-2.39,0.85c-0.9-0.43-1.28-1.5-0.85-2.39c0.43-0.9,1.5-1.28,2.39-0.85
					C655.7,95.7,656.08,96.77,655.65,97.67z"/>
				<path class="st0" d="M653.16,102.91c-0.43,0.9-1.5,1.28-2.39,0.85c-0.9-0.43-1.28-1.5-0.85-2.39c0.43-0.9,1.5-1.28,2.39-0.85
					C653.2,100.94,653.58,102.01,653.16,102.91z"/>
				<path class="st0" d="M650.66,108.14c-0.43,0.9-1.5,1.28-2.39,0.85c-0.9-0.43-1.28-1.5-0.85-2.39s1.5-1.28,2.39-0.85
					C650.71,106.18,651.09,107.25,650.66,108.14z"/>
				<path class="st0" d="M648.16,113.38c-0.43,0.9-1.5,1.28-2.39,0.85c-0.9-0.43-1.28-1.5-0.85-2.39c0.43-0.9,1.5-1.28,2.39-0.85
					C648.21,111.41,648.59,112.49,648.16,113.38z"/>
				<path class="st0" d="M645.67,118.62c-0.43,0.9-1.5,1.28-2.39,0.85c-0.9-0.43-1.28-1.5-0.85-2.39s1.5-1.28,2.39-0.85
					C645.71,116.65,646.09,117.73,645.67,118.62z"/>
				<path class="st0" d="M643.17,123.86c-0.43,0.9-1.5,1.28-2.39,0.85c-0.9-0.43-1.28-1.5-0.85-2.39c0.43-0.9,1.5-1.28,2.39-0.85
					C643.22,121.89,643.6,122.96,643.17,123.86z"/>
				<path class="st0" d="M640.67,129.1c-0.43,0.9-1.5,1.28-2.39,0.85c-0.9-0.43-1.28-1.5-0.85-2.39c0.43-0.9,1.5-1.28,2.39-0.85
					C640.72,127.13,641.1,128.2,640.67,129.1z"/>
				<path class="st0" d="M638.18,134.34c-0.43,0.9-1.5,1.28-2.39,0.85c-0.9-0.43-1.28-1.5-0.85-2.39c0.43-0.9,1.5-1.28,2.39-0.85
					C638.22,132.37,638.6,133.44,638.18,134.34z"/>
				<polygon class="st5" points="728.94,182.8 630.95,136.1 797.98,37.95 				"/>
			</g>
			<line class="st6" x1="709.93" y1="6.6" x2="784.76" y2="42.27"/>
			<line class="st6" x1="706.6" y1="13.58" x2="781.43" y2="49.25"/>
			<line class="st6" x1="703.27" y1="20.57" x2="778.1" y2="56.24"/>
			<line class="st6" x1="699.94" y1="27.55" x2="774.77" y2="63.22"/>
			<line class="st6" x1="696.61" y1="34.54" x2="771.44" y2="70.21"/>
			<line class="st6" x1="693.28" y1="41.52" x2="768.12" y2="77.19"/>
			<line class="st6" x1="689.95" y1="48.51" x2="764.79" y2="84.18"/>
			<line class="st6" x1="686.62" y1="55.49" x2="761.46" y2="91.16"/>
			<line class="st6" x1="683.3" y1="62.48" x2="758.13" y2="98.14"/>
			<line class="st6" x1="679.97" y1="69.46" x2="754.8" y2="105.13"/>
			<line class="st6" x1="676.64" y1="76.44" x2="751.47" y2="112.11"/>
			<line class="st6" x1="673.31" y1="83.43" x2="748.14" y2="119.1"/>
			<line class="st6" x1="669.98" y1="90.41" x2="744.81" y2="126.08"/>
			<line class="st6" x1="666.65" y1="97.4" x2="741.48" y2="133.07"/>
			<line class="st6" x1="663.32" y1="104.38" x2="738.15" y2="140.05"/>
			<line class="st6" x1="659.99" y1="111.37" x2="734.83" y2="147.04"/>
			<line class="st6" x1="656.66" y1="118.35" x2="731.5" y2="154.02"/>
			<line class="st6" x1="653.33" y1="125.34" x2="728.17" y2="161"/>
			<line class="st6" x1="650" y1="132.32" x2="724.84" y2="167.99"/>
		</g>
		<g style="clip-path:url(#SVGID_00000134960971202841086830000017954847743380712836_);">
			<polygon class="st14" points="659.79,187.62 662.82,190.88 667.93,187.8 665.68,184.07 			"/>
			<path class="st3" d="M662.87,185.18l2.96,4.91c4.13-1.82,9.61-1.74,13.16,0.78l13.49-8.12l-10.65-17.69l-13.49,8.12
				C668.9,177.5,666.41,182.39,662.87,185.18z"/>
			<path class="st5" d="M684.75,169.91l-2.92-4.85l-13.49,8.12c0.02,0.18,0.03,0.37,0.05,0.55l2.66,4.42L684.75,169.91z"/>
			<path class="st14" d="M753.12,129.1l4.5,7.47c2.16,3.58,1,8.24-2.58,10.39l-69.78,42.02l-12.31-20.44l69.79-42.02
				C746.31,124.37,750.96,125.52,753.12,129.1z"/>
			<path class="st15" d="M676.73,174.83l70.32-42.34c3.29-1.98,7.56-0.92,9.54,2.37l-3.79-6.29c-1.98-3.29-6.25-4.35-9.54-2.37
				l-70.32,42.34L676.73,174.83z"/>
			<g>
				<path class="st15" d="M719.44,134.56l19.02-11.45c4.26-2.56,9.79-1.19,12.35,3.07l5.63,9.35c0.79,1.32,1.21,2.76,1.28,4.2
					c1.63-2.76,1.74-6.3-0.03-9.24l-5.63-9.35c-2.56-4.26-8.1-5.63-12.35-3.07l-22.17,13.35c-0.87,0.52-1.15,1.65-0.63,2.52l0,0
					C717.44,134.8,718.57,135.08,719.44,134.56z"/>
				<g>
					<path class="st14" d="M755.56,126.93l4.8,7.96c2.79,4.64,1.3,10.67-3.34,13.46l-23.05,13.88l-14.91-24.77l23.05-13.88
						C746.74,120.8,752.77,122.29,755.56,126.93z"/>
					<path class="st15" d="M722.69,143.51l23.74-14.29c4.26-2.56,9.79-1.19,12.35,3.07l-3.64-6.04c-2.56-4.26-8.1-5.63-12.35-3.07
						l-23.74,14.29L722.69,143.51z"/>
				</g>
			</g>
		</g>
		<g style="clip-path:url(#SVGID_00000134960971202841086830000017954847743380712836_);">
			<polygon class="st10" points="219.75,438.68 215.93,440.75 217.59,446.32 221.66,445.11 			"/>
			<path class="st3" d="M221.3,442.19l-5.36,1.59c0.71,4.34-0.71,9.5-3.95,12.23l4.37,14.71l19.29-5.74l-4.37-14.71
				C227.08,449.75,223.07,446.21,221.3,442.19z"/>
			<path class="st5" d="M230.37,466.55l5.29-1.57l-4.37-14.71c-0.18-0.02-0.35-0.06-0.53-0.09l-4.82,1.44L230.37,466.55z"/>
			<path class="st10" d="M252.03,541.07l-7.78,2.31c-4.01,1.19-8.22-1.09-9.42-5.1l-22.58-75.91l22.29-6.63l22.58,75.91
				C258.32,535.67,256.04,539.88,252.03,541.07z"/>
			<path class="st11" d="M227.69,457.79l22.81,76.68c1.07,3.59-0.98,7.36-4.56,8.42l6.86-2.04c3.59-1.07,5.63-4.84,4.56-8.42
				l-22.81-76.68L227.69,457.79z"/>
			<g>
				<path class="st11" d="M255.28,507.91l6.17,20.74c1.38,4.64-1.26,9.53-5.91,10.91l-10.19,3.03c-1.44,0.43-2.9,0.47-4.28,0.18
					c2.2,2.21,5.52,3.18,8.73,2.23l10.19-3.03c4.64-1.38,7.29-6.27,5.91-10.91l-7.19-24.17c-0.28-0.95-1.28-1.49-2.22-1.2l0,0
					C255.54,505.97,255,506.96,255.28,507.91z"/>
				<g>
					<path class="st10" d="M253.43,543.92l-8.21,2.44c-5.19,1.54-10.65-1.41-12.2-6.6l-7.41-24.9l27.01-8.03l7.41,24.9
						C261.58,536.92,258.62,542.38,253.43,543.92z"/>
					<path class="st11" d="M246.04,508.79l7.7,25.89c1.38,4.64-1.26,9.53-5.91,10.91l6.59-1.96c4.64-1.38,7.29-6.27,5.91-10.91
						l-7.7-25.89L246.04,508.79z"/>
				</g>
			</g>
		</g>
		<g style="clip-path:url(#SVGID_00000134960971202841086830000017954847743380712836_);">
			<polygon class="st14" points="89.59,215.3 90.32,211.02 84.91,208.89 83.35,212.84 			"/>
			<path class="st3" d="M85.88,214.36l2.05-5.2c-3.85-2.12-7.04-6.41-7.2-10.65l-14.27-5.63l-7.38,18.73l14.27,5.63
				C76.36,214.24,81.62,213.28,85.88,214.36z"/>
			<path class="st5" d="M61.1,206.48l-2.02,5.13l14.27,5.63c0.13-0.13,0.26-0.24,0.4-0.36l1.85-4.68L61.1,206.48z"/>
			<path class="st14" d="M-10.92,177.57l2.98-7.55c1.53-3.89,5.93-5.8,9.82-4.27l73.68,29.04l-8.53,21.64l-73.68-29.04
				C-10.54,185.85-12.45,181.46-10.92,177.57z"/>
			<path class="st15" d="M69.66,209.77l-74.43-29.33c-3.48-1.37-5.19-5.31-3.82-8.79l-2.62,6.66c-1.37,3.48,0.34,7.41,3.82,8.79
				l74.43,29.33L69.66,209.77z"/>
			<g>
				<path class="st15" d="M13.19,200.58l-20.13-7.94c-4.51-1.78-6.72-6.87-4.95-11.38l3.9-9.89c0.55-1.4,1.42-2.57,2.49-3.48
					c-3.1,0.37-5.91,2.39-7.13,5.5l-3.9,9.89c-1.78,4.51,0.44,9.6,4.95,11.38l23.46,9.25c0.92,0.36,1.96-0.09,2.32-1.01l0,0
					C14.56,201.98,14.1,200.94,13.19,200.58z"/>
				<g>
					<path class="st14" d="M-14.02,176.91l3.14-7.97c1.99-5.04,7.68-7.51,12.72-5.53L26,172.94l-10.33,26.22l-24.17-9.52
						C-13.53,187.64-16.01,181.95-14.02,176.91z"/>
					<path class="st15" d="M18.19,192.76l-25.13-9.9c-4.51-1.78-6.72-6.87-4.95-11.38l-2.52,6.39c-1.78,4.51,0.44,9.6,4.95,11.38
						l25.13,9.9L18.19,192.76z"/>
				</g>
			</g>
		</g>
		<g style="clip-path:url(#SVGID_00000134960971202841086830000017954847743380712836_);">
			<polygon class="st10" points="446.28,-22.35 442.11,-23.56 439.37,-18.44 443.12,-16.43 			"/>
			<path class="st3" d="M444.92-18.77l-4.93-2.64c-2.55,3.58-7.18,6.25-11.41,5.92l-7.24,13.53l17.75,9.49l7.24-13.53
				C443.7-9.32,443.35-14.66,444.92-18.77z"/>
			<path class="st5" d="M434.23,4.94l4.86,2.6l7.24-13.53c-0.11-0.14-0.21-0.29-0.31-0.44l-4.44-2.37L434.23,4.94z"/>
			<path class="st12" d="M397.2,73.14l-7.16-3.83c-3.69-1.97-5.08-6.56-3.11-10.25l37.35-69.84L444.8,0.19l-37.35,69.84
				C405.47,73.72,400.89,75.11,397.2,73.14z"/>
			<path class="st13" d="M438.49-3.19l-37.73,70.54c-1.76,3.3-5.87,4.54-9.17,2.78l6.31,3.37c3.3,1.76,7.4,0.52,9.17-2.78
				L444.8,0.19L438.49-3.19z"/>
			<g>
				<path class="st13" d="M422.84,51.85l-10.21,19.08c-2.29,4.27-7.6,5.88-11.87,3.6l-9.38-5.01c-1.32-0.71-2.39-1.71-3.17-2.88
					c0.01,3.12,1.69,6.14,4.64,7.72l9.38,5.01c4.27,2.29,9.59,0.67,11.87-3.6l11.89-22.24c0.47-0.87,0.14-1.96-0.73-2.42l0,0
					C424.39,50.65,423.3,50.98,422.84,51.85z"/>
				<g>
					<path class="st12" d="M396.19,76.15l-7.55-4.04c-4.78-2.55-6.58-8.5-4.02-13.27l12.25-22.91l24.85,13.29l-12.25,22.91
						C406.91,76.9,400.96,78.7,396.19,76.15z"/>
					<path class="st13" d="M415.65,45.98l-12.74,23.82c-2.29,4.27-7.6,5.88-11.87,3.6l6.06,3.24c4.27,2.29,9.59,0.67,11.87-3.6
						l12.74-23.82L415.65,45.98z"/>
				</g>
			</g>
		</g>
		<g style="clip-path:url(#SVGID_00000134960971202841086830000017954847743380712836_);">
			<g>
				<path class="st7" d="M630.09,390.21l83.12,168.6l42.74-125.86L630.09,390.21z M711.08,510.32l-44.54-90.35l67.45,22.9
					L711.08,510.32z"/>
				<polygon class="st8" points="633.65,397.43 754.12,438.34 755.95,432.95 630.09,390.21 				"/>
			</g>
			<g>
				<line class="st9" x1="638.44" y1="393.86" x2="637.45" y2="396.77"/>
				<line class="st9" x1="641.94" y1="395.05" x2="640.95" y2="397.96"/>
				<line class="st9" x1="645.43" y1="396.23" x2="644.44" y2="399.15"/>
				<line class="st9" x1="648.93" y1="397.42" x2="647.94" y2="400.33"/>
				<line class="st9" x1="652.42" y1="398.61" x2="651.43" y2="401.52"/>
				<line class="st9" x1="655.92" y1="399.8" x2="654.93" y2="402.71"/>
				<line class="st9" x1="659.42" y1="400.98" x2="658.43" y2="403.9"/>
				<line class="st9" x1="662.91" y1="402.17" x2="661.92" y2="405.08"/>
				<line class="st9" x1="666.41" y1="403.36" x2="665.42" y2="406.27"/>
				<line class="st9" x1="669.9" y1="404.54" x2="668.92" y2="407.46"/>
				<line class="st9" x1="673.4" y1="405.73" x2="672.41" y2="408.65"/>
				<line class="st9" x1="676.9" y1="406.92" x2="675.91" y2="409.83"/>
				<line class="st9" x1="680.39" y1="408.11" x2="679.4" y2="411.02"/>
				<line class="st9" x1="683.89" y1="409.29" x2="682.9" y2="412.21"/>
				<line class="st9" x1="687.39" y1="410.48" x2="686.4" y2="413.39"/>
				<line class="st9" x1="690.88" y1="411.67" x2="689.89" y2="414.58"/>
				<line class="st9" x1="694.38" y1="412.86" x2="693.39" y2="415.77"/>
				<line class="st9" x1="697.87" y1="414.04" x2="696.88" y2="416.96"/>
				<line class="st9" x1="701.37" y1="415.23" x2="700.38" y2="418.14"/>
				<line class="st9" x1="704.87" y1="416.42" x2="703.88" y2="419.33"/>
				<line class="st9" x1="708.36" y1="417.6" x2="707.37" y2="420.52"/>
				<line class="st9" x1="711.86" y1="418.79" x2="710.87" y2="421.71"/>
				<line class="st9" x1="715.36" y1="419.98" x2="714.37" y2="422.89"/>
				<line class="st9" x1="718.85" y1="421.17" x2="717.86" y2="424.08"/>
				<line class="st9" x1="722.35" y1="422.35" x2="721.36" y2="425.27"/>
				<line class="st9" x1="725.84" y1="423.54" x2="724.85" y2="426.45"/>
				<line class="st9" x1="729.34" y1="424.73" x2="728.35" y2="427.64"/>
				<line class="st9" x1="732.84" y1="425.92" x2="731.85" y2="428.83"/>
				<line class="st9" x1="736.33" y1="427.1" x2="735.34" y2="430.02"/>
				<line class="st9" x1="739.83" y1="428.29" x2="738.84" y2="431.2"/>
				<line class="st9" x1="743.32" y1="429.48" x2="742.34" y2="432.39"/>
				<line class="st9" x1="746.82" y1="430.67" x2="745.83" y2="433.58"/>
				<line class="st9" x1="750.32" y1="431.85" x2="749.33" y2="434.77"/>
			</g>
		</g>
		<g style="clip-path:url(#SVGID_00000134960971202841086830000017954847743380712836_);">
			
				<rect x="504.73" y="426.94" transform="matrix(0.9353 0.354 -0.354 0.9353 210.6857 -163.8102)" class="st14" width="96.87" height="134.24"/>
			<polygon class="st15" points="574.71,573.98 484.1,539.69 622.22,448.43 			"/>
			<g>
				<path class="st0" d="M537.88,422.35c-0.36,0.95-1.43,1.43-2.38,1.07c-0.95-0.36-1.43-1.43-1.07-2.38
					c0.36-0.95,1.43-1.43,2.38-1.07C537.76,420.33,538.24,421.4,537.88,422.35z"/>
				<path class="st0" d="M544.36,424.8c-0.36,0.95-1.43,1.43-2.38,1.07c-0.95-0.36-1.43-1.43-1.07-2.38
					c0.36-0.95,1.43-1.43,2.38-1.07C544.24,422.78,544.72,423.85,544.36,424.8z"/>
				<path class="st0" d="M550.83,427.25c-0.36,0.95-1.43,1.43-2.38,1.07c-0.95-0.36-1.43-1.43-1.07-2.38
					c0.36-0.95,1.43-1.43,2.38-1.07C550.71,425.23,551.19,426.3,550.83,427.25z"/>
				
					<ellipse transform="matrix(0.9793 -0.2026 0.2026 0.9793 -75.4158 121.4834)" class="st0" cx="555.57" cy="429.05" rx="1.85" ry="1.85"/>
				<path class="st0" d="M563.77,432.15c-0.36,0.95-1.43,1.43-2.38,1.07c-0.95-0.36-1.43-1.43-1.07-2.38
					c0.36-0.95,1.43-1.43,2.38-1.07C563.65,430.13,564.13,431.19,563.77,432.15z"/>
				<path class="st0" d="M570.24,434.6c-0.36,0.95-1.43,1.43-2.38,1.07c-0.95-0.36-1.43-1.43-1.07-2.38
					c0.36-0.95,1.43-1.43,2.38-1.07C570.12,432.58,570.6,433.64,570.24,434.6z"/>
				<path class="st0" d="M576.72,437.05c-0.36,0.95-1.43,1.43-2.38,1.07c-0.95-0.36-1.43-1.43-1.07-2.38
					c0.36-0.95,1.43-1.43,2.38-1.07C576.6,435.03,577.08,436.09,576.72,437.05z"/>
				<path class="st0" d="M583.19,439.5c-0.36,0.95-1.43,1.43-2.38,1.07c-0.95-0.36-1.43-1.43-1.07-2.38
					c0.36-0.95,1.43-1.43,2.38-1.07C583.07,437.48,583.55,438.54,583.19,439.5z"/>
				<path class="st0" d="M589.66,441.94c-0.36,0.95-1.43,1.43-2.38,1.07c-0.95-0.36-1.43-1.43-1.07-2.38
					c0.36-0.95,1.43-1.43,2.38-1.07C589.54,439.93,590.02,440.99,589.66,441.94z"/>
				<path class="st0" d="M596.13,444.39c-0.36,0.95-1.43,1.43-2.38,1.07c-0.95-0.36-1.43-1.43-1.07-2.38
					c0.36-0.95,1.43-1.43,2.38-1.07C596.01,442.38,596.49,443.44,596.13,444.39z"/>
				<path class="st0" d="M602.6,446.84c-0.36,0.95-1.43,1.43-2.38,1.07c-0.95-0.36-1.43-1.43-1.07-2.38
					c0.36-0.95,1.43-1.43,2.38-1.07C602.48,444.83,602.96,445.89,602.6,446.84z"/>
				<path class="st0" d="M609.07,449.29c-0.36,0.95-1.43,1.43-2.38,1.07c-0.95-0.36-1.43-1.43-1.07-2.38
					c0.36-0.95,1.43-1.43,2.38-1.07C608.96,447.27,609.44,448.34,609.07,449.29z"/>
				<path class="st0" d="M615.55,451.74c-0.36,0.95-1.43,1.43-2.38,1.07c-0.95-0.36-1.43-1.43-1.07-2.38
					c0.36-0.95,1.43-1.43,2.38-1.07C615.43,449.72,615.91,450.79,615.55,451.74z"/>
			</g>
			<g>
				<path class="st8" d="M535.99,422.13L535.99,422.13c-0.71-0.27-1.08-1.07-0.8-1.78l3.27-8.63c0.27-0.71,1.07-1.08,1.78-0.8l0,0
					c0.71,0.27,1.08,1.07,0.8,1.78l-3.27,8.63C537.51,422.04,536.71,422.4,535.99,422.13z"/>
				<path class="st8" d="M542.75,424.69L542.75,424.69c-0.71-0.27-1.08-1.07-0.8-1.78l3.27-8.63c0.27-0.71,1.07-1.08,1.78-0.8l0,0
					c0.71,0.27,1.08,1.07,0.8,1.78l-3.27,8.63C544.27,424.6,543.47,424.96,542.75,424.69z"/>
				<path class="st8" d="M549.08,427.08L549.08,427.08c-0.71-0.27-1.07-1.07-0.8-1.78l3.27-8.63c0.27-0.71,1.07-1.08,1.78-0.8l0,0
					c0.71,0.27,1.08,1.07,0.8,1.78l-3.27,8.63C550.6,426.99,549.8,427.35,549.08,427.08z"/>
				<path class="st8" d="M555.7,429.59L555.7,429.59c-0.71-0.27-1.08-1.07-0.8-1.78l3.27-8.63c0.27-0.71,1.07-1.08,1.78-0.8l0,0
					c0.71,0.27,1.07,1.07,0.8,1.78l-3.27,8.63C557.21,429.5,556.41,429.86,555.7,429.59z"/>
				<path class="st8" d="M561.88,431.93L561.88,431.93c-0.71-0.27-1.08-1.07-0.8-1.78l3.27-8.63c0.27-0.71,1.07-1.08,1.78-0.8l0,0
					c0.71,0.27,1.08,1.07,0.8,1.78l-3.27,8.63C563.4,431.84,562.6,432.2,561.88,431.93z"/>
				<path class="st8" d="M568.64,434.48L568.64,434.48c-0.71-0.27-1.08-1.07-0.8-1.78l3.27-8.63c0.27-0.71,1.07-1.08,1.78-0.8l0,0
					c0.71,0.27,1.08,1.07,0.8,1.78l-3.27,8.63C570.16,434.39,569.36,434.75,568.64,434.48z"/>
				<path class="st8" d="M574.97,436.88L574.97,436.88c-0.71-0.27-1.08-1.07-0.8-1.78l3.27-8.63c0.27-0.71,1.07-1.08,1.78-0.8l0,0
					c0.71,0.27,1.07,1.07,0.8,1.78l-3.27,8.63C576.48,436.79,575.68,437.15,574.97,436.88z"/>
				<path class="st8" d="M581.44,439.33L581.44,439.33c-0.71-0.27-1.08-1.07-0.8-1.78l3.27-8.63c0.27-0.71,1.07-1.08,1.78-0.8l0,0
					c0.71,0.27,1.08,1.07,0.8,1.78l-3.27,8.63C582.96,439.24,582.16,439.6,581.44,439.33z"/>
				<path class="st8" d="M587.77,441.72L587.77,441.72c-0.71-0.27-1.08-1.07-0.8-1.78l3.27-8.63c0.27-0.71,1.07-1.08,1.78-0.8l0,0
					c0.71,0.27,1.08,1.07,0.8,1.78l-3.27,8.63C589.28,441.63,588.48,441.99,587.77,441.72z"/>
				<path class="st8" d="M594.39,444.23L594.39,444.23c-0.71-0.27-1.08-1.07-0.8-1.78l3.27-8.63c0.27-0.71,1.07-1.08,1.78-0.8l0,0
					c0.71,0.27,1.08,1.07,0.8,1.78l-3.27,8.63C595.9,444.14,595.1,444.5,594.39,444.23z"/>
				<path class="st8" d="M600.86,446.68L600.86,446.68c-0.71-0.27-1.08-1.07-0.8-1.78l3.27-8.63c0.27-0.71,1.07-1.08,1.78-0.8l0,0
					c0.71,0.27,1.08,1.07,0.8,1.78l-3.27,8.63C602.37,446.59,601.57,446.95,600.86,446.68z"/>
				<path class="st8" d="M607.19,449.07L607.19,449.07c-0.71-0.27-1.08-1.07-0.8-1.78l3.27-8.63c0.27-0.71,1.07-1.08,1.78-0.8l0,0
					c0.71,0.27,1.08,1.07,0.8,1.78l-3.27,8.63C608.7,448.98,607.9,449.34,607.19,449.07z"/>
				<path class="st8" d="M613.66,451.52L613.66,451.52c-0.71-0.27-1.08-1.07-0.8-1.78l3.27-8.63c0.27-0.71,1.07-1.08,1.78-0.8l0,0
					c0.71,0.27,1.08,1.07,0.8,1.78l-3.27,8.63C615.17,451.43,614.37,451.79,613.66,451.52z"/>
			</g>
			<path class="st3" d="M576.46,485.86l-35.33-13.37c-2.4-0.91-3.6-3.59-2.7-5.98l5.53-14.62c0.91-2.4,3.59-3.6,5.98-2.7
				l35.33,13.37c2.4,0.91,3.6,3.59,2.7,5.98l-5.53,14.62C581.54,485.56,578.86,486.77,576.46,485.86z"/>
		</g>
		<g style="clip-path:url(#SVGID_00000134960971202841086830000017954847743380712836_);">
			
				<rect x="-1.18" y="-37.82" transform="matrix(-0.7001 0.7141 -0.7141 -0.7001 105.8658 18.8741)" class="st12" width="100.29" height="138.98"/>
			<polygon class="st13" points="-35.76,18.83 34.46,-52.79 63.48,116.13 			"/>
			<g>
				<path class="st0" d="M123.31,47.03c-0.75-0.74-0.77-1.95-0.03-2.7c0.74-0.75,1.95-0.77,2.7-0.03c0.75,0.74,0.77,1.95,0.03,2.7
					C125.27,47.76,124.06,47.77,123.31,47.03z"/>
				<path class="st0" d="M118.29,52.15c-0.75-0.74-0.77-1.95-0.03-2.7c0.74-0.75,1.95-0.77,2.7-0.03c0.75,0.74,0.77,1.95,0.03,2.7
					C120.26,52.87,119.05,52.89,118.29,52.15z"/>
				<path class="st0" d="M113.28,57.26c-0.75-0.74-0.77-1.95-0.03-2.7c0.74-0.75,1.95-0.77,2.7-0.03c0.75,0.74,0.77,1.95,0.03,2.7
					C115.24,57.99,114.03,58,113.28,57.26z"/>
				<path class="st0" d="M108.26,62.38c-0.75-0.74-0.77-1.95-0.03-2.7c0.74-0.75,1.95-0.77,2.7-0.03c0.75,0.74,0.77,1.95,0.03,2.7
					C110.23,63.11,109.02,63.12,108.26,62.38z"/>
				<path class="st0" d="M103.25,67.49c-0.75-0.74-0.77-1.95-0.03-2.7c0.74-0.75,1.95-0.77,2.7-0.03c0.75,0.74,0.77,1.95,0.03,2.7
					C105.21,68.22,104,68.23,103.25,67.49z"/>
				<path class="st0" d="M98.23,72.61c-0.75-0.74-0.77-1.95-0.03-2.7c0.74-0.75,1.95-0.77,2.7-0.03c0.75,0.74,0.77,1.95,0.03,2.7
					C100.19,73.34,98.99,73.35,98.23,72.61z"/>
				<path class="st0" d="M93.22,77.73c-0.75-0.74-0.77-1.95-0.03-2.7c0.74-0.75,1.95-0.77,2.7-0.03c0.75,0.74,0.77,1.95,0.03,2.7
					C95.18,78.45,93.97,78.46,93.22,77.73z"/>
				
					<ellipse transform="matrix(2.038051e-03 -1 1 2.038051e-03 7.8779 170.8496)" class="st0" cx="89.54" cy="81.48" rx="1.91" ry="1.91"/>
				<path class="st0" d="M83.18,87.96c-0.75-0.74-0.77-1.95-0.03-2.7c0.74-0.75,1.95-0.77,2.7-0.03c0.75,0.74,0.77,1.95,0.03,2.7
					C85.15,88.68,83.94,88.7,83.18,87.96z"/>
				<path class="st0" d="M78.17,93.07c-0.75-0.74-0.77-1.95-0.03-2.7c0.74-0.75,1.95-0.77,2.7-0.03c0.75,0.74,0.77,1.95,0.03,2.7
					C80.13,93.8,78.92,93.81,78.17,93.07z"/>
				<path class="st0" d="M73.15,98.19c-0.75-0.74-0.77-1.95-0.03-2.7c0.74-0.75,1.95-0.77,2.7-0.03s0.77,1.95,0.03,2.7
					S73.91,98.93,73.15,98.19z"/>
				<path class="st0" d="M68.14,103.3c-0.75-0.74-0.77-1.95-0.03-2.7c0.74-0.75,1.95-0.77,2.7-0.03c0.75,0.74,0.77,1.95,0.03,2.7
					C70.1,104.03,68.89,104.04,68.14,103.3z"/>
				<path class="st0" d="M63.12,108.42c-0.75-0.74-0.77-1.95-0.03-2.7c0.74-0.75,1.95-0.77,2.7-0.03s0.77,1.95,0.03,2.7
					C65.09,109.15,63.88,109.16,63.12,108.42z"/>
			</g>
			<g>
				<path class="st8" d="M124.31,45.33L124.31,45.33c0.55-0.57,1.46-0.57,2.03-0.02l6.82,6.69c0.57,0.55,0.57,1.46,0.02,2.03l0,0
					c-0.55,0.56-1.46,0.57-2.03,0.02l-6.82-6.69C123.76,46.81,123.75,45.9,124.31,45.33z"/>
				<path class="st8" d="M119.07,50.68L119.07,50.68c0.55-0.57,1.46-0.57,2.03-0.02l6.82,6.69c0.57,0.55,0.57,1.46,0.02,2.03l0,0
					c-0.55,0.57-1.46,0.57-2.03,0.02l-6.82-6.69C118.52,52.15,118.51,51.24,119.07,50.68z"/>
				<path class="st8" d="M114.16,55.68L114.16,55.68c0.55-0.56,1.46-0.57,2.03-0.02l6.82,6.69c0.57,0.55,0.57,1.46,0.02,2.03l0,0
					c-0.55,0.57-1.46,0.57-2.03,0.02l-6.82-6.69C113.62,57.15,113.61,56.24,114.16,55.68z"/>
				<path class="st8" d="M109.04,60.91L109.04,60.91c0.55-0.57,1.46-0.57,2.03-0.02l6.82,6.69c0.57,0.55,0.57,1.46,0.02,2.03l0,0
					c-0.55,0.57-1.46,0.57-2.03,0.02l-6.82-6.69C108.49,62.38,108.48,61.47,109.04,60.91z"/>
				<path class="st8" d="M104.24,65.8L104.24,65.8c0.55-0.57,1.46-0.57,2.03-0.02l6.82,6.69c0.57,0.55,0.57,1.46,0.02,2.03l0,0
					c-0.55,0.57-1.46,0.57-2.03,0.02l-6.82-6.69C103.7,67.27,103.69,66.36,104.24,65.8z"/>
				<path class="st8" d="M99.01,71.14L99.01,71.14c0.55-0.57,1.46-0.57,2.03-0.02l6.82,6.69c0.57,0.55,0.57,1.46,0.02,2.03l0,0
					c-0.55,0.57-1.46,0.57-2.03,0.02l-6.82-6.69C98.46,72.61,98.45,71.7,99.01,71.14z"/>
				<path class="st8" d="M94.1,76.14L94.1,76.14c0.55-0.57,1.46-0.57,2.03-0.02l6.82,6.69c0.57,0.55,0.57,1.46,0.02,2.03l0,0
					c-0.55,0.57-1.46,0.57-2.03,0.02l-6.82-6.69C93.56,77.61,93.55,76.71,94.1,76.14z"/>
				<path class="st8" d="M89.09,81.26L89.09,81.26c0.55-0.57,1.46-0.57,2.03-0.02l6.82,6.69c0.57,0.55,0.57,1.46,0.02,2.03l0,0
					c-0.55,0.57-1.46,0.57-2.03,0.02l-6.82-6.69C88.54,82.73,88.53,81.82,89.09,81.26z"/>
				<path class="st8" d="M84.18,86.26L84.18,86.26c0.55-0.57,1.46-0.57,2.03-0.02l6.82,6.69c0.57,0.55,0.57,1.46,0.02,2.03l0,0
					c-0.55,0.57-1.46,0.57-2.03,0.02l-6.82-6.69C83.64,87.73,83.63,86.82,84.18,86.26z"/>
				<path class="st8" d="M79.05,91.49L79.05,91.49c0.55-0.57,1.46-0.57,2.03-0.02l6.82,6.69c0.57,0.55,0.57,1.46,0.02,2.03l0,0
					c-0.55,0.57-1.46,0.57-2.03,0.02l-6.82-6.69C78.51,92.96,78.5,92.05,79.05,91.49z"/>
				<path class="st8" d="M74.04,96.6L74.04,96.6c0.55-0.57,1.46-0.57,2.03-0.02l6.82,6.69c0.57,0.55,0.57,1.46,0.02,2.03l0,0
					c-0.55,0.57-1.46,0.57-2.03,0.02l-6.82-6.69C73.49,98.08,73.48,97.17,74.04,96.6z"/>
				<path class="st8" d="M69.13,101.61L69.13,101.61c0.55-0.57,1.46-0.57,2.03-0.02l6.82,6.69c0.57,0.55,0.57,1.46,0.02,2.03l0,0
					c-0.55,0.57-1.46,0.57-2.03,0.02l-6.82-6.69C68.59,103.08,68.58,102.17,69.13,101.61z"/>
				<path class="st8" d="M64.12,106.72L64.12,106.72c0.55-0.57,1.46-0.57,2.03-0.02l6.82,6.69c0.56,0.55,0.57,1.46,0.02,2.03l0,0
					c-0.55,0.57-1.46,0.57-2.03,0.02l-6.82-6.69C63.57,108.19,63.56,107.29,64.12,106.72z"/>
			</g>
			<path class="st3" d="M46.93,57.28l27.61-28.16c1.79-1.83,4.73-1.86,6.56-0.06l11.79,11.56c1.83,1.79,1.86,4.73,0.06,6.56
				L65.35,75.34c-1.79,1.83-4.73,1.86-6.56,0.06L47,63.85C45.17,62.05,45.14,59.11,46.93,57.28z"/>
		</g>
		<g style="clip-path:url(#SVGID_00000134960971202841086830000017954847743380712836_);">
			<g>
				
					<rect x="-22.24" y="221.82" transform="matrix(0.1381 0.9904 -0.9904 0.1381 308.3555 230.6119)" class="st2" width="87.84" height="141.3"/>
				<polygon class="st3" points="-44.4,348.59 -55.02,260.1 83.24,240.83 95.08,325.72 92.12,329.56 				"/>
				<polygon class="st2" points="-46.54,350.6 -58.27,266.47 -54.99,259.24 84.95,239.73 81.59,246.4 93.4,331.09 				"/>
				<polygon class="st4" points="81.98,245.64 84.95,239.73 -54.99,259.24 -57.65,265.1 				"/>
			</g>
			<polygon class="st4" points="-57.86,265.56 -58.27,266.47 -46.54,350.6 93.4,331.09 			"/>
		</g>
		<g style="clip-path:url(#SVGID_00000134960971202841086830000017954847743380712836_);">
			
				<rect x="-22.02" y="319.29" transform="matrix(0.4153 0.9097 -0.9097 0.4153 338.4868 235.426)" class="st14" width="16.25" height="123.47"/>
			
				<rect x="-77.87" y="373.39" transform="matrix(0.9097 -0.4153 0.4153 0.9097 -157.6725 27.2742)" class="st15" width="123.47" height="5.5"/>
			<path class="st14" d="M59.9,348.65c-0.83,0.38-1.71,0.21-1.98-0.38c-0.27-0.59,0.18-1.37,1.01-1.75
				c0.83-0.38,1.71-0.21,1.98,0.38C61.18,347.49,60.73,348.27,59.9,348.65z"/>
			<path class="st3" d="M45.63,362.81l14.02-13.83c0.15-0.14,0.26-0.3,0.34-0.47c-0.47,0.08-0.97-0.08-1.22-0.64
				c-0.25-0.55-0.06-1.04,0.31-1.34c-0.17-0.05-0.36-0.07-0.56-0.05l-19.58,1.48c0,0-0.71,0.33-0.76,0.35l-0.04,0.02
				c-1.04,0.47-1.5,1.71-1.03,2.75l0.02,0.04c0.4,0.87,1.33,1.33,2.23,1.18c-0.7,0.58-0.97,1.59-0.57,2.46l0.02,0.04
				c0.4,0.87,1.33,1.33,2.23,1.18c-0.7,0.58-0.97,1.59-0.57,2.46l0.02,0.04c0.4,0.87,1.33,1.33,2.23,1.18
				c-0.7,0.58-0.97,1.59-0.57,2.46l0.02,0.04c0.47,1.04,1.71,1.5,2.75,1.03l0.04-0.02C44.99,363.12,45.63,362.81,45.63,362.81z"/>
		</g>
		<g style="clip-path:url(#SVGID_00000134960971202841086830000017954847743380712836_);">
			
				<rect x="729.28" y="297.29" transform="matrix(0.8637 -0.5041 0.5041 0.8637 -80.4394 420.6465)" class="st14" width="16.25" height="123.47"/>
			
				<rect x="730.01" y="300" transform="matrix(0.8637 -0.5041 0.5041 0.8637 -82.4374 418.6754)" class="st15" width="5.5" height="123.47"/>
			<path class="st14" d="M697.82,288.83c0.46,0.78,0.38,1.69-0.18,2.01c-0.56,0.33-1.38-0.04-1.84-0.83
				c-0.46-0.78-0.38-1.69,0.18-2.01C696.54,287.67,697.36,288.05,697.82,288.83z"/>
			<path class="st3" d="M713.33,301.61l-15.16-12.57c-0.16-0.14-0.33-0.23-0.5-0.29c0.13,0.46,0.01,0.97-0.51,1.28
				c-0.53,0.31-1.03,0.16-1.36-0.17c-0.03,0.18-0.03,0.37,0.01,0.56l3.43,19.34c0,0,0.39,0.68,0.42,0.72l0.02,0.03
				c0.58,0.99,1.85,1.32,2.84,0.75l0.03-0.02c0.83-0.48,1.19-1.45,0.95-2.34c0.65,0.64,1.68,0.81,2.5,0.32l0.03-0.02
				c0.83-0.48,1.19-1.45,0.95-2.34c0.65,0.64,1.68,0.81,2.5,0.32l0.03-0.02c0.83-0.48,1.19-1.45,0.95-2.34
				c0.65,0.64,1.68,0.81,2.5,0.32l0.03-0.02c0.99-0.58,1.32-1.85,0.75-2.84l-0.02-0.03C713.71,302.22,713.33,301.61,713.33,301.61z"
				/>
		</g>
		<g style="clip-path:url(#SVGID_00000134960971202841086830000017954847743380712836_);">
			
				<rect x="483.14" y="-46.5" transform="matrix(-0.9019 -0.4319 0.4319 -0.9019 927.7936 240.9288)" class="st2" width="16.22" height="123.26"/>
			
				<rect x="434.46" y="14.7" transform="matrix(0.4319 -0.9019 0.9019 0.4319 266.115 457.3561)" class="st4" width="123.26" height="5.49"/>
			<path class="st2" d="M455.43,87.17c0.39-0.82,1.18-1.26,1.77-0.98c0.58,0.28,0.74,1.17,0.35,1.99c-0.39,0.82-1.18,1.25-1.77,0.98
				C455.2,88.88,455.04,87.99,455.43,87.17z"/>
			<path class="st3" d="M457.3,67.19l-1.89,19.57c-0.03,0.21-0.01,0.4,0.04,0.58c0.3-0.36,0.79-0.56,1.35-0.29
				c0.55,0.26,0.71,0.76,0.62,1.22c0.16-0.07,0.32-0.18,0.46-0.33l14.06-13.67c0,0,0.34-0.7,0.36-0.75l0.02-0.04
				c0.49-1.03,0.05-2.27-0.97-2.76l-0.04-0.02c-0.86-0.41-1.87-0.17-2.46,0.53c0.17-0.9-0.27-1.84-1.13-2.25l-0.04-0.02
				c-0.86-0.41-1.87-0.17-2.46,0.53c0.17-0.9-0.27-1.84-1.13-2.25l-0.04-0.02c-0.86-0.41-1.87-0.17-2.46,0.53
				c0.17-0.9-0.27-1.84-1.13-2.25l-0.04-0.02c-1.03-0.49-2.27-0.05-2.76,0.97l-0.02,0.04C457.59,66.54,457.3,67.19,457.3,67.19z"/>
		</g>
		<g style="clip-path:url(#SVGID_00000134960971202841086830000017954847743380712836_);">
			
				<rect x="477.24" y="421.42" transform="matrix(1 -5.923658e-03 5.923658e-03 1 -2.8529 2.8835)" class="st2" width="16.22" height="123.26"/>
			
				<rect x="477.24" y="421.45" transform="matrix(1 -5.915010e-03 5.915010e-03 1 -2.849 2.8476)" class="st4" width="5.49" height="123.26"/>
			<path class="st2" d="M486.07,402.6c0.01,0.91-0.51,1.65-1.16,1.65c-0.65,0-1.18-0.73-1.18-1.64c-0.01-0.91,0.51-1.65,1.16-1.65
				C485.53,400.96,486.06,401.69,486.07,402.6z"/>
			<path class="st3" d="M493.12,421.39l-6.85-18.43c-0.07-0.2-0.17-0.36-0.29-0.5c-0.11,0.46-0.47,0.85-1.08,0.85
				c-0.61,0-0.97-0.37-1.09-0.83c-0.11,0.14-0.21,0.3-0.27,0.49l-6.67,18.44c0,0,0,0.78,0,0.83l0,0.04
				c0.01,1.14,0.94,2.07,2.08,2.06l0.04,0c0.95-0.01,1.75-0.67,1.98-1.55c0.24,0.88,1.05,1.53,2,1.53l0.04,0
				c0.95-0.01,1.75-0.67,1.98-1.55c0.24,0.88,1.05,1.53,2,1.53l0.04,0c0.95-0.01,1.75-0.67,1.98-1.55c0.24,0.88,1.05,1.53,2,1.53
				l0.04,0c1.14-0.01,2.07-0.95,2.06-2.08l0-0.04C493.15,422.1,493.12,421.39,493.12,421.39z"/>
		</g>
		<g style="clip-path:url(#SVGID_00000134960971202841086830000017954847743380712836_);">
			<g>
				
					<rect x="248.53" y="-51.23" transform="matrix(-0.9223 0.3865 -0.3865 -0.9223 566.877 -78.6828)" class="st14" width="85.63" height="137.75"/>
				<polygon class="st3" points="222,-30.67 302.76,-62.71 355.35,62.81 278.28,95.1 273.93,93.26 				"/>
				<polygon class="st14" points="219.57,-32.19 295.94,-64.19 303.57,-62.9 356.81,64.14 349.68,62.64 272.8,94.85 				"/>
				<polygon class="st15" points="350.5,62.81 356.81,64.14 303.57,-62.9 297.39,-63.95 				"/>
			</g>
			<polygon class="st15" points="296.91,-64.03 295.94,-64.19 219.57,-32.19 272.8,94.85 			"/>
		</g>
		<g style="clip-path:url(#SVGID_00000134960971202841086830000017954847743380712836_);">
			<path class="st8" d="M707.31-21.67l69.19,61.9l-83.99,93.89c-4.85,5.42-13.17,5.88-18.6,1.03l-59.38-53.12L707.31-21.67z"/>
			<path class="st3" d="M626.43,78.4c-2.54,2.84-6.52,3.61-9.84,2.21l58.55,52.38c3.65,3.26,9.25,2.95,12.51-0.7
				c3.26-3.65,2.95-9.25-0.7-12.51l-60.2-53.85l-0.57,0.64C629.33,69.8,629.49,74.97,626.43,78.4z"/>
			
				<rect x="635.85" y="1.63" transform="matrix(0.6667 -0.7453 0.7453 0.6667 199.8806 538.2168)" class="st8" width="131.83" height="87.96"/>
			<path class="st8" d="M761.86,25.01c3.87-4.32,10.5-4.69,14.82-0.82c4.32,3.87,4.69,10.5,0.82,14.82
				c-3.87,4.32-10.5,4.69-14.82,0.82C758.36,35.97,757.99,29.33,761.86,25.01z"/>
			<polygon class="st7" points="712.94,-32.84 778.49,25.8 625.04,65.41 			"/>
			
				<rect x="661.96" y="66.6" transform="matrix(-0.7453 -0.6667 0.6667 -0.7453 1135.3584 585.5885)" class="st3" width="35.14" height="18.65"/>
		</g>
	</g>
	<g>
		<polygon class="st8" points="105.93,343.51 114.36,347.38 122.32,342.62 121.25,351.84 128.23,357.94 119.14,359.77 115.49,368.3 
			110.94,360.21 101.71,359.38 107.99,352.55 		"/>
		<polygon class="st8" points="360,18.57 370.23,18.54 376,10.09 379.19,19.81 389.01,22.69 380.75,28.73 381.05,38.96 
			372.75,32.97 363.12,36.41 366.25,26.67 		"/>
		<polygon class="st15" points="650,342.28 657.48,341.08 660.74,334.24 664.19,340.98 671.7,341.96 666.35,347.33 667.74,354.77 
			660.99,351.35 654.33,354.97 655.5,347.49 		"/>
		<polygon class="st10" points="617.27,121.7 623.32,117.76 623.5,110.54 629.11,115.07 636.03,113.02 633.45,119.76 637.55,125.7 
			630.34,125.33 625.96,131.06 624.08,124.1 		"/>
		<polygon class="st14" points="234.04,420.37 244.37,413.63 244.68,401.3 254.28,409.04 266.1,405.53 261.7,417.05 268.7,427.21 
			256.38,426.58 248.88,436.38 245.67,424.47 		"/>
		<polygon class="st14" points="417.11,94.17 424.92,89.08 425.15,79.75 432.41,85.61 441.35,82.95 438.03,91.66 443.32,99.34 
			434,98.87 428.33,106.28 425.9,97.27 		"/>
		<polygon class="st10" points="428.24,468.37 439.59,464.58 442.9,453.08 450.01,462.7 461.96,462.3 455.01,472.03 459.09,483.28 
			447.69,479.68 438.25,487.03 438.15,475.07 		"/>
		<polygon class="st15" points="571.03,64.34 580.58,67.1 588.27,60.8 588.59,70.73 596.96,76.09 587.62,79.48 585.1,89.09 
			579,81.25 569.08,81.83 574.65,73.6 		"/>
		<polygon class="st10" points="94.31,125.73 98.7,119.56 96.1,112.44 103.33,114.71 109.29,110.04 109.37,117.61 115.65,121.85 
			108.47,124.26 106.39,131.54 101.88,125.46 		"/>
		<polygon class="st2" points="589.11,106.92 591.58,103.45 590.12,99.45 594.19,100.73 597.54,98.1 597.58,102.36 601.12,104.74 
			597.08,106.1 595.91,110.19 593.37,106.77 		"/>
		<polygon class="st2" points="134.13,85.16 136.6,81.69 135.14,77.69 139.2,78.96 142.56,76.34 142.6,80.6 146.13,82.98 
			142.1,84.33 140.93,88.43 138.39,85.01 		"/>
		<polygon class="st2" points="155.64,372.41 158.1,368.94 156.64,364.94 160.71,366.21 164.06,363.59 164.11,367.85 167.64,370.23 
			163.6,371.58 162.43,375.68 159.89,372.26 		"/>
		<polygon class="st2" points="361.09,88.26 364.24,83.83 362.38,78.72 367.57,80.35 371.85,76.99 371.91,82.43 376.42,85.47 
			371.26,87.2 369.77,92.43 366.53,88.06 		"/>
		<polygon class="st8" points="422.41,438.59 425.41,434.37 423.63,429.51 428.57,431.06 432.65,427.87 432.7,433.04 436.99,435.93 
			432.09,437.58 430.66,442.56 427.58,438.4 		"/>
		<polygon class="st12" points="596.09,367.44 607.61,365.6 612.62,355.06 617.94,365.45 629.5,366.95 621.27,375.22 623.41,386.69 
			613.01,381.41 602.76,386.99 604.57,375.46 		"/>
	</g>
</g>
</svg>
